<svg width="274" height="360" viewBox="0 0 274 360" fill="none" xmlns="http://www.w3.org/2000/svg">
<path d="M175.3 350.075C174.883 351.097 175.374 352.265 176.396 352.682L193.063 359.48C194.086 359.897 195.253 359.407 195.67 358.384C196.088 357.361 195.597 356.194 194.574 355.777L179.759 349.734L185.802 334.919C186.219 333.896 185.728 332.729 184.705 332.311C183.683 331.894 182.515 332.385 182.098 333.408L175.3 350.075ZM251.155 54.5408L252.748 53.3319L251.155 54.5408ZM164.3 224.623L162.727 225.858L164.3 224.623ZM223.059 166.607L223.875 164.781L223.059 166.607ZM177.927 352.674C181.75 351.066 185.446 349.376 189.016 347.61L187.243 344.024C183.747 345.754 180.126 347.41 176.376 348.986L177.927 352.674ZM210.093 335.375C217.101 330.625 223.452 325.544 229.16 320.21L226.429 317.287C220.877 322.476 214.689 327.428 207.849 332.064L210.093 335.375ZM245.482 302.064C250.56 295.277 254.775 288.26 258.152 281.142L254.538 279.427C251.277 286.301 247.2 293.089 242.279 299.668L245.482 302.064ZM266.167 257.982C268.004 249.73 268.771 241.524 268.501 233.561L264.503 233.696C264.761 241.311 264.029 249.179 262.262 257.112L266.167 257.982ZM264.212 209.344C261.568 201.448 257.734 194.091 252.757 187.534L249.571 189.952C254.273 196.148 257.908 203.114 260.419 210.614L264.212 209.344ZM234.732 170.711C231.35 168.488 227.728 166.502 223.875 164.781L222.244 168.433C225.903 170.068 229.335 171.95 232.535 174.054L234.732 170.711ZM223.875 164.781C219.444 162.801 214.824 161.716 210.178 161.39L209.898 165.38C214.107 165.676 218.266 166.656 222.244 168.433L223.875 164.781ZM183.144 167.496C174.735 171.917 167.404 178.393 162.45 185.888L165.787 188.093C170.341 181.204 177.145 175.169 185.005 171.037L183.144 167.496ZM156.498 213.036C157.49 217.449 159.519 221.775 162.727 225.858L165.873 223.387C163.014 219.749 161.256 215.963 160.401 212.159L156.498 213.036ZM162.727 225.858C165.782 229.747 168.969 232.983 172.263 235.6L174.751 232.468C171.73 230.068 168.759 227.062 165.873 223.387L162.727 225.858ZM197.904 244.13C206.504 243.577 215.019 239.974 223.012 234.176L220.664 230.938C213.103 236.421 205.299 239.646 197.647 240.138L197.904 244.13ZM241.909 215.316C247.064 208.61 251.798 200.99 255.946 192.731L252.371 190.936C248.326 198.989 243.724 206.392 238.738 212.878L241.909 215.316ZM265.904 168.129C268.543 159.77 270.577 151.084 271.878 142.271L267.921 141.687C266.652 150.281 264.667 158.76 262.089 166.925L265.904 168.129ZM273.457 115.757C273.168 106.829 272.004 97.9673 269.83 89.3836L265.952 90.3658C268.049 98.6446 269.178 107.218 269.459 115.887L273.457 115.757ZM260.071 64.5584C257.917 60.6853 255.481 56.9344 252.748 53.3319L249.561 55.7498C252.178 59.1983 254.511 62.7906 256.576 66.5026L260.071 64.5584ZM252.748 53.3319C249.995 49.7039 247.112 46.2686 244.111 43.0234L241.174 45.7393C244.087 48.8888 246.887 52.2247 249.561 55.7498L252.748 53.3319ZM224.016 25.2558C216.631 19.9563 208.829 15.5161 200.736 11.9086L199.107 15.562C206.958 19.0617 214.524 23.3676 221.683 28.5055L224.016 25.2558ZM175.282 3.45914C166.543 1.4748 157.637 0.331565 148.699 3.73376e-05L148.55 3.99727C157.247 4.31983 165.906 5.43193 174.397 7.35982L175.282 3.45914ZM121.94 1.40853C113.099 2.6661 104.357 4.70164 95.8487 7.48722L97.0932 11.2887C105.38 8.57575 113.894 6.59334 122.504 5.36866L121.94 1.40853ZM71.2173 18.0323C63.3618 22.2561 55.8652 27.1929 48.8589 32.8162L51.3626 35.9357C58.1741 30.4688 65.466 25.6663 73.1116 21.5553L71.2173 18.0323ZM29.6307 51.4963C23.911 58.2308 18.7739 65.5831 14.339 73.5279L17.8317 75.4775C22.1374 67.7642 27.125 60.6256 32.6795 54.0857L29.6307 51.4963ZM3.59107 98.0935C2.2146 102.29 1.01373 106.608 0.000115749 111.043L3.8996 111.934C4.88591 107.618 6.05389 103.419 7.39185 99.3402L3.59107 98.0935Z" fill="#FFCA10"/>
</svg>
