<svg width="44" height="44" viewBox="0 0 44 44" fill="none" xmlns="http://www.w3.org/2000/svg">
<path d="M39.6026 5.28664C39.4448 5.14635 39.2527 5.05308 39.0471 5.01688C38.8414 4.98069 38.6301 5.00294 38.4359 5.08125L5.27209 18.4329C4.86871 18.5953 4.52743 18.8879 4.2995 19.2668C4.07157 19.6458 3.96929 20.0905 4.00802 20.5344C4.04675 20.9782 4.22441 21.3971 4.51431 21.7282C4.80421 22.0593 5.1907 22.2847 5.61574 22.3706L14.4721 24.1601V34.293C14.4723 34.7627 14.6089 35.2217 14.8644 35.611C15.12 36.0003 15.4828 36.3022 15.9063 36.4779C16.3298 36.6536 16.7946 36.695 17.2412 36.597C17.6878 36.499 18.0957 36.2659 18.4126 35.9276L22.772 31.2762L29.5763 37.4125C29.9917 37.7906 30.5271 37.9995 31.0818 38C31.324 37.9994 31.5647 37.9602 31.7953 37.8838C32.1733 37.7608 32.5133 37.5379 32.7815 37.2375C33.0497 36.9371 33.2366 36.5697 33.3237 36.1717L39.9708 6.44319C40.0176 6.23419 40.008 6.01603 39.9431 5.81223C39.8782 5.60843 39.7605 5.4267 39.6026 5.28664ZM5.97084 20.3824C5.96457 20.365 5.96457 20.3459 5.97084 20.3285C5.97823 20.3226 5.98653 20.3181 5.99539 20.3151L32.1307 9.78994L15.2265 22.2477L5.99539 20.3891L5.97084 20.3824ZM16.9987 34.5236C16.9536 34.5718 16.8956 34.605 16.8321 34.6191C16.7685 34.6332 16.7023 34.6275 16.642 34.6028C16.5816 34.578 16.5297 34.5354 16.493 34.4802C16.4563 34.425 16.4364 34.3598 16.4358 34.293V25.5574L21.2943 29.9345L16.9987 34.5236ZM31.4107 35.7155C31.3986 35.7724 31.3719 35.825 31.3333 35.8676C31.2948 35.9103 31.2457 35.9415 31.1914 35.9579C31.136 35.978 31.0764 35.9823 31.0188 35.9704C30.9612 35.9586 30.9078 35.931 30.8641 35.8906L17.0314 23.4076L37.5457 8.28323L31.4107 35.7155Z"/>
</svg>
