<svg width="40" height="40" viewBox="0 0 40 40" fill="none" xmlns="http://www.w3.org/2000/svg">
<path d="M3.85008 18.7367C3.78881 18.491 3.78431 18.2347 3.83691 17.987C3.88952 17.7394 3.99784 17.507 4.15367 17.3075C4.3095 17.1079 4.50873 16.9465 4.73624 16.8355C4.96376 16.7245 5.21358 16.6667 5.46674 16.6667H34.5334C34.7866 16.6667 35.0364 16.7245 35.2639 16.8355C35.4914 16.9465 35.6907 17.1079 35.8465 17.3075C36.0023 17.507 36.1106 17.7394 36.1632 17.987C36.2158 18.2347 36.2113 18.491 36.1501 18.7367L33.1317 30.8083C32.9515 31.5295 32.5354 32.1697 31.9495 32.6272C31.3637 33.0847 30.6417 33.3332 29.8984 33.3333H10.1017C9.35843 33.3332 8.63647 33.0847 8.05063 32.6272C7.46478 32.1697 7.04866 31.5295 6.86841 30.8083L3.85008 18.7383V18.7367Z" stroke="#F3F6FA" stroke-width="2" stroke-linejoin="round"/>
<path d="M15 23.3333V26.6667M25 23.3333V26.6667M10 16.6667L16.6667 6.66667M30 16.6667L23.3333 6.66667" stroke="#F3F6FA" stroke-width="2" stroke-linecap="round"/>
</svg>
