<svg width="44" height="44" viewBox="0 0 44 44" fill="none" xmlns="http://www.w3.org/2000/svg">
<path d="M39.4168 7.76592C39.4168 7.76592 36.2217 9.65325 34.4452 10.1884C33.4916 9.09198 32.2243 8.31485 30.8146 7.96214C29.405 7.60943 27.921 7.69815 26.5635 8.21631C25.2059 8.73446 24.0402 9.65706 23.2241 10.8593C22.4079 12.0616 21.9807 13.4855 22.0002 14.9384V16.5218C19.2177 16.5939 16.4605 15.9768 13.9743 14.7254C11.488 13.474 9.34983 11.6271 7.75016 9.34926C7.75016 9.34926 1.41683 23.5993 15.6668 29.9326C12.406 32.146 8.52149 33.2559 4.5835 33.0993C18.8335 41.0159 36.2502 33.0993 36.2502 14.8909C36.2502 14.4508 36.2058 14.0106 36.1235 13.5768C37.7385 11.9839 39.4168 7.76592 39.4168 7.76592Z" stroke-width="2" stroke-linecap="round" stroke-linejoin="round"/>
</svg>
