<svg width="110" height="110" viewBox="0 0 110 110" fill="none" xmlns="http://www.w3.org/2000/svg">
<ellipse cx="78.5714" cy="30.119" rx="27.5" ry="27.5" fill="#FFCA10"/>
<circle cx="27.5" cy="81.1905" r="14.4048" fill="#FFCA10"/>
<path d="M88.123 42.2655L90.3096 33.0396C90.4851 32.3064 90.4548 31.5389 90.2219 30.8218C89.9891 30.1047 89.5628 29.4659 88.9899 28.9756L81.8 22.7962L78.1394 14.0483C77.8502 13.3535 77.3752 12.7517 76.7664 12.3092C76.1577 11.8666 75.4388 11.6004 74.6887 11.5396L65.2386 10.7555L57.1317 5.83662C56.4896 5.44514 55.7522 5.23804 55.0001 5.23804C54.2481 5.23804 53.5106 5.44514 52.8685 5.83662L44.7617 10.7556L35.3112 11.5398C34.5611 11.6006 33.8423 11.8669 33.2336 12.3095C32.6249 12.752 32.1499 13.3537 31.8607 14.0485L28.1999 22.7964L21.0103 28.9755C20.4374 29.4657 20.011 30.1045 19.778 30.8217C19.5451 31.5388 19.5146 32.3063 19.6901 33.0396L21.8769 42.2657L19.6901 51.4917C19.5146 52.2249 19.545 52.9924 19.7779 53.7095C20.0108 54.4265 20.4371 55.0654 21.0099 55.5556L28.1997 61.7348L31.8605 70.4828C32.1496 71.1777 32.6247 71.7794 33.2334 72.222C33.8421 72.6646 34.561 72.9309 35.3112 72.9917L39.1026 73.3062V100.842C39.1026 102.182 39.7754 103.414 40.9022 104.138C41.5328 104.545 42.2672 104.762 43.0177 104.762C43.5705 104.762 44.1258 104.644 44.6476 104.406L54.9999 99.677L65.3519 104.405C65.9484 104.679 66.6043 104.798 67.259 104.751C67.9137 104.705 68.5461 104.494 69.0975 104.137C69.6505 103.784 70.1053 103.296 70.4199 102.72C70.7345 102.144 70.8986 101.498 70.8971 100.842V95.6277C70.8971 94.5521 70.0251 93.6801 68.9496 93.6801C67.8741 93.6801 67.002 94.5521 67.002 95.6277L67.0026 100.851C66.9987 100.857 66.9859 100.864 66.9706 100.862L55.8093 95.7645C55.5554 95.6486 55.2794 95.5886 55.0002 95.5886C54.721 95.5886 54.4451 95.6486 54.1911 95.7645L43.0217 100.867C43.016 100.865 43.0107 100.862 43.0066 100.858C43.0025 100.853 42.9996 100.848 42.9984 100.842V73.6289L44.7618 73.7752L52.8689 78.6947C53.5112 79.0855 54.2485 79.2924 55.0003 79.2928C55.7372 79.2928 56.4745 79.0933 57.1319 78.6945L65.2388 73.7754L67.0022 73.6291V78.1673C67.0022 79.2428 67.8742 80.1148 68.9498 80.1148C70.0253 80.1148 70.8973 79.2428 70.8973 78.1673V73.3058L74.6887 72.9911C75.4389 72.9303 76.1578 72.664 76.7665 72.2214C77.3752 71.7789 77.8502 71.1771 78.1394 70.4822L81.8 61.7342L88.9901 55.555C89.5628 55.0648 89.9891 54.4259 90.2219 53.7089C90.4547 52.9919 90.4851 52.2245 90.3096 51.4913L88.123 42.2655ZM84.2264 42.7148L86.5195 52.3901C86.538 52.4683 86.5118 52.5493 86.4511 52.6014L78.9118 59.0807C78.682 59.2782 78.5015 59.5265 78.3847 59.806L74.546 68.9791C74.5151 69.0529 74.4463 69.1029 74.3664 69.1095L64.4591 69.9315C64.1585 69.9564 63.8677 70.0509 63.6099 70.2076L55.1107 75.3645C55.0773 75.3848 55.039 75.3956 54.9999 75.3956C54.9608 75.3957 54.9224 75.385 54.8889 75.3647L46.3896 70.2074C46.1317 70.0508 45.841 69.9563 45.5403 69.9313L35.6333 69.1095C35.5942 69.1063 35.5568 69.0924 35.5251 69.0694C35.4934 69.0464 35.4687 69.015 35.4537 68.9789L31.615 59.806C31.4981 59.5265 31.3176 59.2782 31.0879 59.0807L23.5489 52.6012C23.5192 52.5757 23.497 52.5425 23.4849 52.5052C23.4728 52.4679 23.4712 52.428 23.4803 52.3899L25.7735 42.7148C25.8434 42.4193 25.8434 42.1116 25.7735 41.8163L23.4803 32.1412C23.4619 32.063 23.4881 31.982 23.5491 31.9297L31.0882 25.4501C31.318 25.2527 31.4985 25.0044 31.6154 24.7249L35.4539 15.5522C35.4848 15.4782 35.5538 15.4282 35.6335 15.4216L45.5409 14.5996C45.8416 14.5747 46.1323 14.4802 46.3902 14.3235L54.8895 9.16619C54.9229 9.14593 54.9612 9.13523 55.0003 9.13527C55.0393 9.1353 55.0776 9.14606 55.1109 9.16638L63.6101 14.3235C63.868 14.4801 64.1587 14.5746 64.4593 14.5996L74.3666 15.4216C74.4056 15.4248 74.4431 15.4386 74.4748 15.4616C74.5065 15.4846 74.5313 15.5159 74.5464 15.552L78.3849 24.7249C78.5019 25.0043 78.6823 25.2526 78.912 25.4501L86.4513 31.9299C86.512 31.9822 86.5382 32.063 86.5197 32.1412L84.2266 41.8163C84.1565 42.1117 84.1564 42.4194 84.2264 42.7148Z" fill="#F3F6FA"/>
<path d="M54.9999 17.1934C41.1753 17.1934 29.928 28.4407 29.928 42.2653C29.928 56.09 41.1753 67.3371 54.9999 67.3371C68.8248 67.3371 80.0719 56.0898 80.0719 42.2653C80.0721 28.4407 68.8248 17.1934 54.9999 17.1934ZM54.9999 63.4421C43.323 63.4421 33.8232 53.9422 33.8232 42.2653C33.8232 30.5884 43.323 21.0886 54.9999 21.0886C66.6769 21.0886 76.1769 30.5886 76.1769 42.2655C76.1769 53.9424 66.6769 63.4421 54.9999 63.4421Z" fill="#F3F6FA"/>
<path d="M57.9517 40.3008C55.8502 39.558 53.5232 38.6584 52.1968 37.6181C51.6856 37.2171 51.4649 36.3756 51.6348 35.4743C51.8016 34.5892 52.4017 33.5166 53.5853 33.1599C56.4001 32.3126 59.5728 34.7836 59.6401 34.8369C60.4765 35.5085 61.6991 35.3776 62.3742 34.5422C63.0501 33.7056 62.9201 32.4794 62.0834 31.8032C61.9503 31.6957 59.7372 29.9365 56.8064 29.3106V27.9589C56.8064 26.8834 55.9344 26.0114 54.8588 26.0114C53.7831 26.0114 52.9113 26.8834 52.9113 27.9589V29.3092C52.7604 29.3451 52.6105 29.3854 52.4619 29.4301C50.0739 30.1496 48.2905 32.189 47.8072 34.7529C47.3644 37.1026 48.1253 39.3747 49.7931 40.6827C51.2194 41.8016 53.2072 42.7548 56.6536 43.9732C59.2933 44.9061 59.1321 47.1562 59.0202 47.8237C58.7346 49.5215 57.3069 51.356 54.8462 51.3724C52.5811 51.3873 51.814 51.2649 50.0434 50.1067C49.1432 49.5178 47.9363 49.7703 47.3473 50.6703C46.7584 51.5704 47.0109 52.7774 47.9109 53.3663C49.8656 54.6452 51.2365 55.08 52.9113 55.2139V56.5719C52.9113 57.6474 53.7833 58.5194 54.8588 58.5194C55.9344 58.5194 56.8064 57.6474 56.8064 56.5719V55.0316C60.2038 54.2031 62.3826 51.3164 62.8612 48.4697C63.4812 44.7809 61.5541 41.5743 57.9517 40.3008Z" fill="#F3F6FA"/>
<path d="M69.2414 88.8205C70.301 88.648 71.0201 87.6491 70.8475 86.5895C70.675 85.5299 69.6761 84.8109 68.6165 84.9834C67.557 85.156 66.8379 86.1549 67.0105 87.2144C67.183 88.274 68.1819 88.9931 69.2414 88.8205Z" fill="#F3F6FA"/>
</svg>
