<svg width="110" height="110" viewBox="0 0 110 110" fill="none" xmlns="http://www.w3.org/2000/svg">
<circle cx="25.5357" cy="21.6071" r="21.6071" fill="#FFCA10"/>
<circle cx="77.9167" cy="11.131" r="11.131" fill="#FFCA10"/>
<path d="M55 70.4687C50.3124 70.4687 45.7026 69.2705 41.6084 66.9878C37.5142 64.7052 34.0715 61.4138 31.6071 57.4263C29.1427 53.4389 27.7384 48.8876 27.5277 44.2048C27.317 39.522 28.3069 34.863 30.4032 30.6704C32.4995 26.4777 35.6328 22.8905 39.5055 20.2493C43.3782 17.6082 47.8617 16.0008 52.5303 15.5798C57.1989 15.1589 61.8977 15.9383 66.1803 17.8441C70.463 19.7498 74.1874 22.7187 77 26.4687C77.2735 26.8334 77.3909 27.2918 77.3264 27.7431C77.262 28.1943 77.0209 28.6015 76.6562 28.875C76.2915 29.1485 75.8331 29.2659 75.3819 29.2015C74.9306 29.137 74.5235 28.8959 74.25 28.5312C70.5677 23.6522 65.1599 20.365 59.1334 19.3425C53.1068 18.3201 46.9174 19.6397 41.832 23.0312C36.7465 26.4228 33.1497 31.6298 31.7777 37.5865C30.4056 43.5431 31.3622 49.799 34.4515 55.0735C37.5409 60.348 42.5294 64.2422 48.3959 65.9592C54.2625 67.6761 60.5635 67.0858 66.0091 64.3092C71.4547 61.5326 75.6331 56.7796 77.6891 51.0231C79.7451 45.2666 79.5232 38.9419 77.0687 33.3437C76.9641 33.1352 76.9031 32.9075 76.8893 32.6745C76.8756 32.4416 76.9094 32.2083 76.9887 31.9889C77.0681 31.7695 77.1913 31.5685 77.3508 31.3982C77.5103 31.2279 77.7028 31.0919 77.9166 30.9984C78.1304 30.905 78.361 30.856 78.5944 30.8546C78.8277 30.8531 79.0589 30.8992 79.2738 30.9899C79.4888 31.0807 79.683 31.2143 79.8446 31.3826C80.0063 31.5509 80.1319 31.7503 80.214 31.9687C82.0408 36.1545 82.7964 40.7293 82.4125 45.2802C82.0287 49.831 80.5174 54.2146 78.0153 58.0352C75.5131 61.8558 72.0989 64.9931 68.0807 67.1638C64.0625 69.3346 59.567 70.4704 55 70.4687ZM62.9406 55.6875C63.2072 55.4965 63.4137 55.2331 63.5355 54.9286C63.6573 54.624 63.6894 54.291 63.6281 53.9687L62.4593 47.0937L67.4093 42.264C67.641 42.041 67.8055 41.7573 67.884 41.4454C67.9625 41.1335 67.9519 40.8058 67.8534 40.4997C67.7549 40.1935 67.5725 39.9211 67.3269 39.7134C67.0813 39.5057 66.7823 39.3712 66.464 39.325L59.589 38.3281L56.5468 32.2265C56.4043 31.9405 56.1848 31.6999 55.9131 31.5317C55.6414 31.3636 55.3281 31.2745 55.0086 31.2745C54.689 31.2745 54.3757 31.3636 54.104 31.5317C53.8323 31.6999 53.6128 31.9405 53.4703 32.2265L50.4109 38.4312L43.5359 39.4281C43.2176 39.4743 42.9186 39.6089 42.673 39.8165C42.4274 40.0242 42.245 40.2966 42.1465 40.6028C42.048 40.909 42.0374 41.2366 42.1159 41.5486C42.1944 41.8605 42.3589 42.1441 42.5906 42.3672L47.5406 47.1969L46.3718 54.0719C46.3194 54.3872 46.356 54.7109 46.4774 55.0066C46.5989 55.3022 46.8004 55.5582 47.0593 55.7457C47.3182 55.9331 47.6242 56.0447 47.943 56.0678C48.2618 56.0909 48.5808 56.0247 48.864 55.8765L55 52.5937L61.1187 55.8078C61.4025 55.955 61.7218 56.0201 62.0406 55.9958C62.3594 55.9715 62.6651 55.8588 62.9234 55.6703L62.9406 55.6875ZM54.2093 49.139L50.3593 51.15L51.0984 46.8703C51.1435 46.5967 51.1217 46.3162 51.0349 46.0528C50.9481 45.7895 50.7989 45.551 50.6 45.3578L47.489 42.3328L51.7859 41.714C52.0613 41.6727 52.3225 41.565 52.547 41.4004C52.7716 41.2357 52.9527 41.0189 53.075 40.7687L55 36.8672L56.925 40.7515C57.0472 41.0017 57.2284 41.2185 57.4529 41.3832C57.6775 41.5478 57.9386 41.6555 58.214 41.6969L62.5109 42.3156L59.4 45.3406C59.201 45.5338 59.0518 45.7723 58.965 46.0356C58.8782 46.299 58.8564 46.5795 58.9015 46.8531L59.6406 51.1328L55.8078 49.1219C55.5613 48.9924 55.287 48.9247 55.0086 48.9247C54.7301 48.9247 54.4558 48.9924 54.2093 49.1219V49.139ZM63.7484 81.2625C65.6243 80.6269 67.2574 79.4261 68.4234 77.825C69.0869 76.9847 69.8891 76.2639 70.7953 75.6937C71.8272 75.3276 72.9144 75.1416 74.0093 75.1437C75.95 75.2037 77.8628 74.6701 79.4921 73.614C80.8874 72.2567 81.8348 70.5057 82.2078 68.5953C82.4459 67.5349 82.8645 66.5233 83.4453 65.6047C84.2093 64.8401 85.0987 64.2123 86.075 63.7484C87.8657 62.9586 89.3713 61.6389 90.389 59.9672C91.0529 58.154 91.1489 56.1815 90.664 54.3125C90.4189 53.2362 90.3608 52.1257 90.4921 51.0297C90.8427 50.033 91.36 49.1031 92.0218 48.2797C93.2905 46.7785 94.0701 44.9254 94.2562 42.9687C94.0672 40.9962 93.275 39.1297 91.9875 37.6234C91.3253 36.8001 90.808 35.8702 90.4578 34.8734C90.3267 33.7774 90.3849 32.667 90.6296 31.5906C91.1156 29.7216 91.0197 27.7489 90.3546 25.9359C89.3378 24.2634 87.8319 22.9435 86.0406 22.1547C85.0643 21.6908 84.1749 21.063 83.4109 20.2984C82.8304 19.3796 82.4119 18.3681 82.1734 17.3078C81.7994 15.3977 80.8521 13.647 79.4578 12.289C77.8284 11.233 75.9156 10.6994 73.975 10.7594C72.88 10.7615 71.7928 10.5755 70.7609 10.2094C69.8596 9.63219 69.0633 8.90564 68.4062 8.06092C67.2402 6.45983 65.6071 5.25902 63.7312 4.62342C61.828 4.3855 59.8974 4.73324 58.1968 5.62029C57.196 6.12956 56.1143 6.46105 55 6.59998C53.8898 6.48267 52.8083 6.1745 51.8031 5.68904C50.1021 4.80303 48.1719 4.45535 46.2687 4.69217C44.3928 5.32777 42.7597 6.52858 41.5937 8.12967C40.9302 8.96996 40.128 9.69074 39.2218 10.2609C38.1899 10.627 37.1027 10.8131 36.0078 10.8109C34.0671 10.7509 32.1543 11.2846 30.525 12.3406C29.1297 13.6979 28.1823 15.4489 27.8093 17.3594C27.5712 18.4198 27.1526 19.4313 26.5718 20.35C25.8078 21.1145 24.9184 21.7424 23.9421 22.2062C22.1514 22.996 20.6458 24.3157 19.6281 25.9875C19.4444 26.3712 19.3059 26.7749 19.2156 27.1906C19.1176 27.6464 19.2047 28.1225 19.4577 28.5142C19.7107 28.9058 20.109 29.1809 20.5648 29.2789C21.0206 29.3769 21.4967 29.2898 21.8884 29.0368C22.28 28.7837 22.5551 28.3855 22.6531 27.9297C22.6875 27.7753 22.7394 27.6254 22.8078 27.4828C23.5571 26.4777 24.5593 25.689 25.7125 25.1969C27.0455 24.5042 28.2352 23.5652 29.2187 22.4297C30.0886 21.1779 30.7127 19.7722 31.0578 18.2875C31.2887 17.0601 31.8402 15.9157 32.6562 14.9703C33.7577 14.3971 34.9908 14.1244 36.2312 14.1797C37.763 14.1746 39.2798 13.8771 40.7 13.3031C42.0207 12.5632 43.1875 11.5772 44.1375 10.3984C44.8801 9.37435 45.8829 8.56735 47.0421 8.06092C48.2411 8.04313 49.4247 8.33309 50.4796 8.90311C51.8821 9.56848 53.399 9.95936 54.9484 10.0547C56.4977 9.95894 58.0145 9.56808 59.4171 8.90311C60.4721 8.33309 61.6556 8.04313 62.8546 8.06092C64.0475 8.52498 65.0928 9.30296 65.8796 10.3125C66.8293 11.4915 67.9962 12.4776 69.3171 13.2172C70.7362 13.7971 72.253 14.1004 73.7859 14.1109C75.0266 14.0806 76.2536 14.377 77.3437 14.9703C78.15 15.9243 78.6896 17.0747 78.9078 18.3047C79.2633 19.7919 79.8992 21.1977 80.7812 22.4469C81.807 23.5693 83.038 24.4852 84.4078 25.1453C85.5569 25.6609 86.5478 26.4738 87.2781 27.5C87.5975 28.6936 87.5975 29.9502 87.2781 31.1437C86.9403 32.6449 86.8936 34.1969 87.1406 35.7156C87.5692 37.153 88.2693 38.4949 89.2031 39.6687C90.0805 40.6352 90.6751 41.8244 90.9218 43.1062C90.6751 44.388 90.0805 45.5772 89.2031 46.5437C88.2697 47.7178 87.5696 49.0596 87.1406 50.4969C86.8936 52.0156 86.9403 53.5676 87.2781 55.0687C87.5967 56.2624 87.5967 57.5188 87.2781 58.7125C86.5287 59.7176 85.5265 60.5063 84.3734 60.9984C83.0309 61.6052 81.8129 62.4561 80.7812 63.5078C79.9113 64.7596 79.2872 66.1652 78.9421 67.65C78.7112 68.8773 78.1597 70.0217 77.3437 70.9672C76.2422 71.5403 75.0091 71.813 73.7687 71.7578C72.2369 71.7628 70.7202 72.0603 69.3 72.6344C67.9792 73.3743 66.8124 74.3603 65.8625 75.539C65.1198 76.5631 64.117 77.3701 62.9578 77.8765C61.7587 77.8951 60.575 77.6051 59.5203 77.0344C58.1178 76.369 56.6009 75.9781 55.0515 75.8828C53.5022 75.9785 51.9854 76.3694 50.5828 77.0344C49.5281 77.6051 48.3443 77.8951 47.1453 77.8765C45.9524 77.4125 44.9072 76.6345 44.1203 75.625C43.1706 74.4459 42.0037 73.4599 40.6828 72.7203C39.2637 72.1404 37.7469 71.837 36.214 71.8265C34.9733 71.8568 33.7463 71.5605 32.6562 70.9672C31.8499 70.0131 31.3103 68.8627 31.0921 67.6328C30.7366 66.1456 30.1007 64.7397 29.2187 63.4906C28.1929 62.3682 26.9619 61.4523 25.5921 60.7922C24.443 60.2765 23.4522 59.4637 22.7218 58.4375C22.4024 57.2439 22.4024 55.9873 22.7218 54.7937C23.0596 53.2926 23.1063 51.7406 22.8593 50.2219C22.4307 48.7845 21.7306 47.4426 20.7968 46.2687C19.9195 45.3022 19.3249 44.113 19.0781 42.8312C19.3257 41.5497 19.9202 40.3607 20.7968 39.3937L21.364 38.5687C22.0467 37.6245 22.5533 36.5648 22.8593 35.4406C23.0399 34.3884 23.0399 33.3131 22.8593 32.2609C22.8322 32.0352 22.761 31.817 22.6496 31.6189C22.5382 31.4207 22.3888 31.2464 22.2101 31.106C22.0313 30.9655 21.8267 30.8617 21.6078 30.8003C21.3889 30.739 21.16 30.7213 20.9343 30.7484C20.7086 30.7755 20.4905 30.8468 20.2923 30.9582C20.0941 31.0696 19.9198 31.2189 19.7794 31.3977C19.6389 31.5764 19.5351 31.7811 19.4737 32C19.4124 32.2189 19.3947 32.4477 19.4218 32.6734C19.535 33.339 19.535 34.0188 19.4218 34.6844C19.2028 35.3998 18.8659 36.0736 18.425 36.6781L17.8921 37.4515C16.6151 39.0198 15.8635 40.9499 15.7437 42.9687C15.9327 44.9413 16.7249 46.8077 18.0125 48.314C18.6746 49.1373 19.1919 50.0673 19.5421 51.064C19.6732 52.1601 19.615 53.2705 19.3703 54.3469C18.8843 56.2158 18.9803 58.1886 19.6453 60.0015C20.6621 61.674 22.168 62.9939 23.9593 63.7828C24.9356 64.2467 25.825 64.8745 26.589 65.639C27.1695 66.5578 27.588 67.5694 27.8265 68.6297C28.2005 70.5397 29.1478 72.2904 30.5421 73.6484C32.1715 74.7044 34.0843 75.2381 36.025 75.1781C37.1199 75.176 38.2071 75.362 39.239 75.7281C40.145 76.2986 40.9471 77.0193 41.6109 77.8594C42.7769 79.4604 44.41 80.6612 46.2859 81.2969C48.1891 81.5326 50.119 81.185 51.8203 80.3C52.8169 79.7986 53.8926 79.4729 55 79.3375C56.1101 79.4548 57.1916 79.763 58.1968 80.2484C59.5622 80.8963 61.0374 81.2811 62.5453 81.3828C62.9445 81.3815 63.3423 81.3354 63.7312 81.2453L63.7484 81.2625ZM27.5 63.7656L23.8562 103.881L46.8359 80.8844C47.1175 80.5556 47.2646 80.1326 47.2479 79.7C47.2312 79.2675 47.0519 78.8571 46.7458 78.551C46.4397 78.2449 46.0293 78.0656 45.5968 78.0489C45.1642 78.0322 44.7413 78.1793 44.4125 78.4609L23.7875 99.0859L21.914 87.7937C21.8547 87.4415 21.6871 87.1165 21.4345 86.8639C21.1819 86.6113 20.8569 86.4437 20.5046 86.3844L9.19527 84.4937L28.325 65.3125C28.6065 64.9837 28.7537 64.5607 28.737 64.1282C28.7202 63.6956 28.5409 63.2853 28.2348 62.9792C27.9287 62.6731 27.5184 62.4937 27.0858 62.477C26.6533 62.4603 26.2303 62.6075 25.9015 62.889L4.39995 84.425C4.1784 84.6482 4.02233 84.9279 3.94873 85.2336C3.87514 85.5393 3.88683 85.8594 3.98255 86.159C4.07826 86.4585 4.25433 86.7261 4.49158 86.9325C4.72883 87.1389 5.01816 87.2763 5.32808 87.3297L18.7 89.564L20.9343 102.936C20.9877 103.246 21.1251 103.535 21.3315 103.772C21.5379 104.01 21.8055 104.186 22.105 104.281C22.4046 104.377 22.7247 104.389 23.0304 104.315C23.3361 104.242 23.6158 104.086 23.839 103.864L27.5 63.7656ZM93.8609 75.1265C94.181 74.8045 94.3607 74.3689 94.3607 73.9148C94.3607 73.4608 94.181 73.0251 93.8609 72.7031L84.2187 63.0953C83.8899 62.8137 83.467 62.6666 83.0344 62.6833C82.6018 62.7 82.1915 62.8793 81.8854 63.1854C81.5793 63.4915 81.4 63.9019 81.3833 64.3344C81.3666 64.767 81.5137 65.1899 81.7953 65.5187L91.3859 75.1094C91.7079 75.4295 92.1435 75.6092 92.5976 75.6092C93.0517 75.6092 93.4873 75.4295 93.8093 75.1094L93.8609 75.1265ZM87.8968 104.345C88.1977 104.248 88.4659 104.07 88.6721 103.831C88.8783 103.591 89.0145 103.299 89.0656 102.987L91.3 89.6156L104.672 87.3812C104.982 87.3279 105.271 87.1905 105.508 86.9841C105.746 86.7776 105.922 86.5101 106.017 86.2105C106.113 85.911 106.125 85.5909 106.051 85.2852C105.978 84.9794 105.822 84.6997 105.6 84.4765L100.719 79.5609C100.39 79.2793 99.967 79.1322 99.5344 79.1489C99.1018 79.1656 98.6915 79.3449 98.3854 79.651C98.0793 79.9571 97.9 80.3675 97.8833 80.8C97.8666 81.2326 98.0137 81.6556 98.2953 81.9844L100.805 84.4937L89.5125 86.3672C89.1602 86.4265 88.8352 86.5941 88.5826 86.8467C88.33 87.0993 88.1624 87.4243 88.1031 87.7765L86.2296 99.0687L66.5328 79.389C66.204 79.1075 65.781 78.9603 65.3485 78.977C64.9159 78.9937 64.5056 79.1731 64.1995 79.4792C63.8934 79.7853 63.714 80.1956 63.6973 80.6282C63.6806 81.0607 63.8278 81.4837 64.1093 81.8125L86.1437 103.881C86.3642 104.102 86.6407 104.259 86.9435 104.335C87.2463 104.41 87.564 104.402 87.8625 104.311L87.8968 104.345ZM96.25 75.625C95.91 75.625 95.5777 75.7258 95.2951 75.9146C95.0124 76.1035 94.7921 76.3719 94.662 76.686C94.532 77.0001 94.4979 77.3456 94.5642 77.679C94.6305 78.0124 94.7942 78.3187 95.0346 78.5591C95.275 78.7994 95.5812 78.9631 95.9146 79.0295C96.248 79.0958 96.5936 79.0617 96.9077 78.9316C97.2218 78.8016 97.4902 78.5813 97.679 78.2986C97.8679 78.016 97.9687 77.6837 97.9687 77.3437C97.9687 76.8879 97.7876 76.4507 97.4653 76.1284C97.143 75.8061 96.7058 75.625 96.25 75.625Z" fill="#F3F6FA"/>
</svg>
