<svg width="44" height="44" viewBox="0 0 44 44" fill="none" xmlns="http://www.w3.org/2000/svg">
<path d="M0.128906 10.6562C0.128906 9.02344 1.24609 8.37891 2.62109 8.29297L9.02344 8.33594C9.41016 8.33594 9.75391 8.59375 9.88281 8.98047C11.3438 13.707 13.1484 16.6289 15.2969 19.9375C15.4258 20.1953 15.6406 20.3242 15.8555 20.3242C16.0273 20.3242 16.1992 20.2383 16.3281 20.0234L16.457 19.5508L16.5 12.1172C16.5 11.043 15.9844 10.8711 14.7812 10.6992C14.3086 10.6133 14.0078 10.1836 14.0078 9.75391C14.0078 9.66797 14.0078 9.58203 14.0508 9.49609C14.6523 7.64844 16.543 6.70312 19.207 6.70312L21.6133 6.66016C23.5898 6.66016 25.3945 7.51953 25.3945 10.0547V19.8086C25.5664 19.9375 25.7383 20.0234 25.9531 20.0234C26.2969 20.0234 26.7266 19.8086 27.0703 19.25C29.3047 16.1133 31.8398 12.375 32.1836 10.3984C32.1836 10.3125 32.2266 10.2695 32.2695 10.1836C32.7422 9.23828 33.9453 8.59375 34.4609 8.42188C34.5469 8.37891 34.6758 8.33594 34.8477 8.33594H41.5078L41.9375 8.37891C42.582 8.37891 43.0547 8.80859 43.2695 9.19531C43.6562 9.79688 43.5703 10.4414 43.6133 10.6992V11C42.9688 14.9102 38.5 19.293 36.6094 22.1289C36.3516 22.4727 36.2227 22.7734 36.2227 23.0742C36.2227 23.332 36.3516 23.5898 36.5664 23.8477L42.8398 31.7539C43.1836 32.2266 43.3555 32.7852 43.3555 33.2578C43.3555 34.6758 42.0234 35.4922 40.7344 35.6211L40.0039 35.6641H33.4727C33.3438 35.6641 33.2578 35.707 33.1289 35.707C32.3984 35.707 31.7969 35.3203 31.3672 34.8906C29.9922 33.2148 28.6602 31.4961 27.3281 29.8203C27.0703 29.4766 26.9844 29.4336 26.7266 29.2617C26.4258 30.5078 26.168 31.7969 25.8672 33.0859L25.7383 33.8164C25.5234 34.5898 24.9648 35.4062 23.9336 35.6211L23.332 35.6641H19.1211C11.6875 35.6641 5.02734 25.0938 0.34375 11.9023C0.214844 11.5586 0.128906 11.0859 0.128906 10.6562ZM25.9531 21.7852C24.8359 21.7852 23.5898 21.1406 23.5898 19.9375V10.0547C23.5898 8.89453 23.0742 8.46484 21.6562 8.46484L19.207 8.55078C17.832 8.55078 17.0586 8.76562 16.4141 9.19531C17.4023 9.66797 18.3047 10.3125 18.3047 12.1172V19.6797C18.1758 21.1836 16.9297 22.1719 15.7266 22.1719C14.9102 22.1719 14.1797 21.6992 13.75 20.9258C11.8164 18.0039 10.1836 15.2539 8.76562 11.3008L8.37891 10.1836L2.66406 10.1406C1.89062 10.1406 1.97656 10.1836 1.97656 10.5703C1.97656 10.8281 2.01953 11.1719 2.0625 11.3867L2.96484 13.793C7.64844 25.9102 13.5352 33.8594 19.1211 33.8594H23.418C24.0195 33.8594 23.9766 33.1289 24.1055 32.6992L24.9219 28.918C25.0938 28.5312 25.2227 28.1875 25.5234 27.8867C25.8672 27.543 26.2539 27.4141 26.6406 27.4141C27.457 27.4141 28.2305 28.0586 28.7461 28.6602L32.3984 33.3008C32.6992 33.7734 32.957 33.8594 33.1289 33.8594H40.2188C40.9062 33.8594 41.5078 33.6445 41.5078 33.2148C41.5078 33.0859 41.4648 32.9141 41.3789 32.7852L35.1484 25.0078C34.6328 24.3633 34.418 23.7188 34.418 23.0742C34.418 22.3867 34.6758 21.6992 35.1055 21.0977C36.9102 18.3906 40.7773 14.5234 41.6797 11.3438L41.8086 10.7852C41.7656 10.5703 41.7656 10.3984 41.7227 10.1836H34.9766C34.5469 10.3555 34.2031 10.6133 33.9453 10.957L33.6875 11.7734C32.6992 14.5234 29.9922 18.3047 28.0586 20.9258C27.4141 21.5273 26.6836 21.7852 25.9531 21.7852Z"/>
</svg>
