<svg width="110" height="110" viewBox="0 0 110 110" fill="none" xmlns="http://www.w3.org/2000/svg">
<circle cx="87.7381" cy="85.1191" r="18.3333" fill="#FFCA10"/>
<circle cx="37.9762" cy="22.262" r="10.4762" fill="#FFCA10"/>
<path d="M105.782 43.5102L97.1083 27.8695C96.6441 27.0331 95.9647 26.336 95.1404 25.8506C94.3161 25.3652 93.377 25.1091 92.4204 25.1088H72.0361V20.9301C72.0361 19.0373 70.4978 17.499 68.605 17.499H12.853C12.0238 17.499 11.3491 18.1715 11.3491 19.0029C11.3491 19.8322 12.0238 20.5068 12.853 20.5068H68.605C68.8392 20.5068 69.0282 20.6959 69.0282 20.9301V66.9066H12.853C12.0238 66.9066 11.3491 67.5813 11.3491 68.4106V77.7777C11.3491 79.6684 12.8896 81.2088 14.7823 81.2088H17.6892C18.4368 87.5574 23.853 92.501 30.3993 92.501C36.9478 92.501 42.364 87.5574 43.1095 81.2088H69.1163C69.8618 87.5574 75.278 92.501 81.8265 92.501C88.3728 92.501 93.789 87.5574 94.5366 81.2088H106.166C108.059 81.2088 109.597 79.6684 109.597 77.7777V58.2613C109.597 53.1137 108.278 48.0111 105.782 43.5102ZM14.357 77.7777V69.9145H22.1665C19.7388 71.9598 18.078 74.8881 17.6892 78.201H14.7823C14.5482 78.201 14.357 78.0098 14.357 77.7777ZM30.3993 89.4932C25.0025 89.4932 20.6089 85.1018 20.6089 79.7049C20.6089 74.3059 25.0025 69.9145 30.3993 69.9145C35.7984 69.9145 40.1898 74.3059 40.1898 79.7049C40.1898 85.1018 35.7984 89.4932 30.3993 89.4932ZM69.0282 78.201H43.1095C42.7206 74.8881 41.062 71.9598 38.6321 69.9145H69.0282V78.201ZM81.8265 89.4932C76.4275 89.4932 72.0361 85.1018 72.0361 79.7049C72.0361 74.3059 76.4275 69.9145 81.8265 69.9145C87.2234 69.9145 91.6169 74.3059 91.6169 79.7049C91.6169 85.1018 87.2234 89.4932 81.8265 89.4932ZM106.589 71.21C104.969 70.5998 103.814 69.0336 103.814 67.2031V62.6098C103.814 62.3756 104.005 62.1865 104.237 62.1865H106.589V71.21ZM106.589 59.1787H104.237C102.346 59.1787 100.806 60.717 100.806 62.6098V67.2031C100.806 70.7072 103.292 73.6398 106.589 74.3338V77.7777C106.589 78.0098 106.4 78.201 106.166 78.201H94.5366C93.789 71.8502 88.3728 66.9066 81.8265 66.9066C77.9013 66.9066 74.3843 68.6813 72.0361 71.4721V28.1166H92.4204C93.2755 28.1166 94.064 28.5807 94.4765 29.3283L103.15 44.9689C105.403 49.0373 106.586 53.6109 106.589 58.2613V59.1787ZM81.8263 84.5756C79.1403 84.5756 76.9551 82.3904 76.9551 79.7045C76.9551 77.0185 79.1403 74.8333 81.8263 74.8333C84.5122 74.8333 86.6974 77.0185 86.6974 79.7045C86.6974 82.3904 84.5122 84.5756 81.8263 84.5756ZM81.8263 77.8413C80.7989 77.8413 79.9629 78.6773 79.9629 79.7047C79.9629 80.7321 80.7989 81.568 81.8263 81.568C82.8537 81.568 83.6896 80.7321 83.6896 79.7047C83.6896 78.6773 82.8537 77.8413 81.8263 77.8413ZM30.3996 84.5756C27.7136 84.5756 25.5284 82.3904 25.5284 79.7045C25.5284 77.0185 27.7136 74.8333 30.3996 74.8333C33.0855 74.8333 35.2707 77.0185 35.2707 79.7045C35.2707 82.3904 33.0855 84.5756 30.3996 84.5756ZM30.3996 77.8413C29.3722 77.8413 28.5362 78.6773 28.5362 79.7047C28.5362 80.7321 29.3722 81.568 30.3996 81.568C31.4269 81.568 32.2629 80.7321 32.2629 79.7047C32.2629 78.6773 31.4269 77.8413 30.3996 77.8413ZM99.9346 53.912C99.6796 53.912 99.4226 53.8837 99.1676 53.8255L76.5151 48.6471C74.9446 48.2881 73.848 46.9124 73.848 45.3017V33.3601C73.848 31.4677 75.3876 29.9282 77.28 29.9282H90.7178C91.3302 29.9283 91.9315 30.0923 92.4592 30.4031C92.987 30.7139 93.422 31.1602 93.7192 31.6957L101.566 45.8468C102.18 46.9557 102.711 48.1087 103.154 49.2963C103.369 49.8735 103.424 50.4982 103.313 51.104C103.201 51.7097 102.928 52.274 102.521 52.7368C102.199 53.1058 101.801 53.4015 101.355 53.6042C100.909 53.8069 100.425 53.9118 99.9346 53.912ZM77.28 32.936C77.1675 32.9361 77.0598 32.9809 76.9803 33.0604C76.9008 33.1399 76.856 33.2477 76.8559 33.3601V45.3017C76.8559 45.5007 76.9914 45.6706 77.1852 45.7149L99.8379 50.893C100.055 50.9425 100.194 50.8277 100.258 50.7551C100.332 50.6711 100.405 50.5323 100.336 50.3476C99.9452 49.3001 99.4771 48.2833 98.9353 47.3054L91.0884 33.1545C91.0517 33.0883 90.9979 33.0331 90.9327 32.9947C90.8675 32.9563 90.7933 32.936 90.7176 32.936H77.28ZM44.4437 24.7908C34.013 24.7908 25.5288 33.2771 25.5288 43.7057C25.5288 54.1363 34.013 62.6205 44.4437 62.6205C54.8722 62.6205 63.3585 54.1363 63.3585 43.7057C63.3585 33.2771 54.8722 24.7908 44.4437 24.7908ZM44.4437 59.6127C35.6716 59.6127 28.5366 52.4777 28.5366 43.7057C28.5366 34.9357 35.6716 27.7986 44.4437 27.7986C53.2136 27.7986 60.3507 34.9357 60.3507 43.7057C60.3507 52.4777 53.2136 59.6127 44.4437 59.6127ZM52.8913 48.5848C52.5734 49.1369 51.9954 49.4441 51.4025 49.4441C51.1103 49.4441 50.8159 49.3711 50.5452 49.2143L43.5843 45.1945C43.0708 44.898 42.7249 44.3416 42.7249 43.7057V34.7553C42.7249 33.8078 43.4941 33.0365 44.4437 33.0365C45.3933 33.0365 46.1624 33.8078 46.1624 34.7553V42.7152L52.264 46.2365C52.6584 46.4649 52.946 46.8405 53.0636 47.2808C53.1813 47.7211 53.1193 48.1901 52.8913 48.5848ZM17.8426 27.7997H1.90869C1.50983 27.7997 1.12731 27.6413 0.845269 27.3592C0.563232 27.0772 0.404785 26.6947 0.404785 26.2958C0.404785 25.8969 0.563232 25.5144 0.845269 25.2324C1.12731 24.9503 1.50983 24.7919 1.90869 24.7919H17.8426C18.2414 24.7919 18.624 24.9503 18.906 25.2324C19.188 25.5144 19.3465 25.8969 19.3465 26.2958C19.3465 26.6947 19.188 27.0772 18.906 27.3592C18.624 27.6413 18.2414 27.7997 17.8426 27.7997ZM17.8426 39.4071H1.90869C1.50983 39.4071 1.12731 39.2486 0.845269 38.9666C0.563232 38.6846 0.404785 38.302 0.404785 37.9032C0.404785 37.5043 0.563232 37.1218 0.845269 36.8397C1.12731 36.5577 1.50983 36.3993 1.90869 36.3993H17.8426C18.2414 36.3993 18.624 36.5577 18.906 36.8397C19.188 37.1218 19.3465 37.5043 19.3465 37.9032C19.3465 38.302 19.188 38.6846 18.906 38.9666C18.624 39.2486 18.2414 39.4071 17.8426 39.4071ZM17.8426 51.0142H1.90869C1.50983 51.0142 1.12731 50.8558 0.845269 50.5737C0.563232 50.2917 0.404785 49.9092 0.404785 49.5103C0.404785 49.1115 0.563232 48.7289 0.845269 48.4469C1.12731 48.1649 1.50983 48.0064 1.90869 48.0064H17.8426C18.2414 48.0064 18.624 48.1649 18.906 48.4469C19.188 48.7289 19.3465 49.1115 19.3465 49.5103C19.3465 49.9092 19.188 50.2917 18.906 50.5737C18.624 50.8558 18.2414 51.0142 17.8426 51.0142ZM17.8426 62.6216H1.90869C1.50983 62.6216 1.12731 62.4631 0.845269 62.1811C0.563232 61.8991 0.404785 61.5165 0.404785 61.1177C0.404785 60.7188 0.563232 60.3363 0.845269 60.0543C1.12731 59.7722 1.50983 59.6138 1.90869 59.6138H17.8426C18.2414 59.6138 18.624 59.7722 18.906 60.0543C19.188 60.3363 19.3465 60.7188 19.3465 61.1177C19.3465 61.5165 19.188 61.8991 18.906 62.1811C18.624 62.4631 18.2414 62.6216 17.8426 62.6216Z" fill="#F3F6FA"/>
</svg>
