<svg width="156" height="60" viewBox="0 0 156 60" fill="none" xmlns="http://www.w3.org/2000/svg">
<g clip-path="url(#clip0_408_1259)">
<path fill-rule="evenodd" clip-rule="evenodd" d="M33.2487 55.4074C36.7009 54.928 39.1997 54.5684 37.8922 50.5042C37.3165 48.7173 37.5381 47.8257 38.1246 46.1423C38.5786 44.8347 39.1053 43.6961 39.6355 42.4485C42.1979 36.4159 44.2427 33.1907 41.822 25.7234C40.273 31.7542 35.9128 39.8117 33.3214 45.8789C32.9128 46.836 32.5024 47.4897 32.1809 48.6719C31.0278 52.8904 32.595 54.7209 32.0284 55.8904C30.6664 58.6998 22.3801 59.5424 19.7524 58.5454C18.6392 58.1241 18.2397 56.9582 19.0659 55.9885C20.1483 54.7209 22.2112 54.0962 23.7039 52.7452C26.1646 50.5188 26.3916 43.3166 26.279 41.1011C26.1646 38.8148 23.7039 37.2984 21.6828 36.8553C19.6107 36.4013 16.9303 37.1114 15.3704 37.9504C13.6888 38.8565 12.414 40.0841 12.0581 42.5121C11.8837 43.6998 11.9691 44.9927 12.1779 46.1441C12.6864 48.9534 13.8613 48.6501 15.0145 49.1495C17.4352 50.1955 17.9491 52.6761 16.6507 55.2966C14.9727 57.3596 10.963 57.1852 7.99027 53.7803C3.69002 48.8499 2.97634 42.2016 1.83591 39.8081C1.77961 40.8832 2.32985 44.6441 2.72755 46.2476C3.79535 50.5533 7.44547 58.0805 12.2269 58.8269C14.5986 59.1955 16.6144 58.2875 18.0653 57.5521C18.1652 58.7851 19.8196 59.7984 21.2215 59.9437C23.7693 60.2088 28.3202 59.4824 30.7136 58.6598C32.4588 58.0587 33.2905 57.5357 33.2487 55.4074ZM18.819 54.4776C20.6658 52.1259 17.9346 47.0448 18.029 44.3444C18.0926 42.563 19.006 37.9522 22.5381 38.793C24.8898 39.3523 24.799 41.3935 24.6464 43.5163C24.5411 44.9419 24.3069 50.2663 23.2518 51.503C22.1222 52.8251 20.3153 54.2615 18.819 54.4776Z" fill="#F3F6FA"/>
<path fill-rule="evenodd" clip-rule="evenodd" d="M5.8547 37.4673C6.31051 37.184 6.72818 36.9135 7.09138 36.5793C7.41462 36.2815 7.8323 35.8293 8.12467 35.5914C8.73303 35.0993 10.9921 35.5969 11.6368 35.9492C12.0781 36.1907 12.6047 36.5666 13.0351 36.0418C13.2839 35.7403 13.6253 35.0557 13.7088 34.658C13.0187 33.9952 11.4988 33.9825 10.3838 33.9389C11.2736 33.1035 15.4794 31.8214 17.0738 31.7506C17.7385 32.1756 19.8668 34.1641 20.9001 33.8935C21.2034 33.1017 20.1828 32.2264 20.6531 31.4328C21.4903 30.8245 24.1235 31.1041 25.0641 31.5581C27.3777 32.675 27.7845 33.1072 28.3075 31.8814C29.94 32.2355 30.7954 33.227 31.4074 34.5654C31.6779 35.1574 32.8928 37.0678 33.4358 37.5327C33.7627 37.8105 33.434 37.6889 33.8644 37.7579C34.3529 36.8935 33.8408 34.7978 33.937 33.6955C34.0115 32.8438 35.793 31.1132 36.5339 30.2107C36.8916 29.5987 37.0859 28.658 36.345 28.5944C35.5078 28.7089 34.6398 29.1247 33.779 29.319C32.4279 29.4625 31.4055 29.9019 30.3541 29.0266C29.3662 28.204 28.2585 27.5848 27.1562 26.9165C26.6604 26.6168 24.9152 25.8233 24.6501 25.5182C25.8232 24.5394 26.566 24.0273 27.3105 22.3602C27.977 20.8674 28.2512 19.0696 27.9879 17.2482C27.592 14.5133 26.1192 12.5194 24.2905 10.7543C24.1307 10.5999 24.1053 10.5618 23.9273 10.3783L23.5714 10.0043C24.6174 8.98185 26.6295 7.45825 26.5932 5.32628C26.5787 4.5327 26.3026 3.74638 25.5762 3.70825C24.9189 4.13682 25.1095 4.61079 23.8166 4.95401C22.2457 5.3735 19.8868 4.44009 20.526 7.50183C20.7131 8.39529 21.2851 8.88016 21.8371 9.27967C23.753 10.6725 25.8886 13.3311 26.8275 16.4092C28.0315 20.3499 25.2639 23.0139 23.3026 24.4122C22.8704 24.7191 22.7887 24.7591 22.2312 24.5085C18.4649 22.8214 21.2361 24.405 18.8426 20.3517C18.1325 19.1459 17.7984 19.1259 17.4679 18.5811C18.2124 18.3559 18.4957 17.7549 18.5938 16.796C17.8946 16.8632 17.3589 16.9867 17.0647 17.5369L16.8032 18.0527C16.7942 18.0708 16.7742 18.1053 16.756 18.129C15.0781 17.3844 13.8269 17.8856 13.1132 19.2204C12.5902 18.592 12 17.8112 10.9249 18.3995C11.1011 19.6743 11.8656 20.003 12.9643 19.6707C12.7009 21.5121 12.7046 22.5799 12.6501 24.4558L11.1338 25.1368C10.7524 24.8771 9.90978 24.0763 9.57927 23.7694C9.03629 23.2645 8.60227 22.8087 8.13012 22.2403L6.82261 20.6822C6.41765 20.1229 6.09077 19.5509 5.6731 18.8662C4.80506 20.1374 2.69489 27.4431 2.52419 29.3771C2.8329 28.7851 4.84864 22.4837 5.88375 21.3051C6.72637 22.6852 7.38738 23.7585 8.40615 24.9443C8.73303 25.3239 9.21971 25.5636 9.42128 26.0503C6.92431 27.6828 5.33533 28.9867 3.08714 31.2984C2.49513 32.0194 1.95397 32.5151 1.33472 33.474C0.913413 34.1259 0.283267 35.2446 0.0907735 36.1653C-0.207047 37.5908 0.357723 37.9812 0.944284 38.2119C2.49695 38.8257 4.48726 38.3172 5.8547 37.4673ZM12.8408 26.5406C12.9497 27.5484 13.2875 28.2676 13.7415 28.8233C14.5315 28.8814 15.0962 28.6907 15.69 28.5182C17.1828 28.5036 19.2748 27.5412 20.0357 25.9522C21.5811 26.2446 23.2899 26.7966 24.7917 27.2579C25.5944 27.5049 26.3408 27.7845 27.0654 28.0696C28.7161 28.7197 31.3874 29.8402 31.0169 31.4909C30.7881 32.0412 30.069 31.9794 29.1701 31.6108C26.7494 30.6193 22.8305 30.2942 20.2627 30.2688C17.546 30.296 14.7367 31.0242 12.2306 32.0448C9.5139 33.1507 8.43157 34.3493 7.46365 35.2536C7.31656 33.7773 6.81898 32.27 5.31535 32.2845C5.87104 33.5103 6.15433 33.7028 6.06898 35.4044C5.96184 37.5164 3.73545 37.776 2.03932 37.925C0.384963 37.9195 0.448522 36.1471 1.12225 35.1719C1.85954 34.1023 3.2415 32.2645 4.15312 31.4074C6.35591 29.25 9.73545 26.9365 12.8408 26.5406ZM7.05143 8.39529C5.97092 8.28452 5.11559 8.15195 4.36014 7.73609C1.16039 6.5212 2.5024 12.3342 6.37588 13.4292C6.74816 12.3051 8.80022 9.87895 8.54961 8.7821L7.73424 8.52423C14.9564 -2.99635 29.2972 0.710062 35.2064 9.61381C40.2911 17.2773 40.6689 24.4704 37.796 32.6296C39.049 31.5309 40.4727 28.1786 41.0466 26.0012C43.4618 16.8596 36.4739 3.9643 27.5557 1.11684C22.667 -0.444902 15.6465 -0.720931 11.3844 2.61139C9.16704 4.34384 8.16099 6.02907 7.05143 8.39529ZM3.35409 34.3384C3.94247 33.454 2.63315 33.2125 2.26995 33.8917C1.74332 34.8759 2.91099 35.0049 3.35409 34.3384ZM13.2657 25.9722C13.4818 25.5654 14.0357 25.1441 14.9873 24.9225C16.204 24.5938 16.8668 25.3257 17.1864 26.1501C18.0454 25.3202 18.7391 23.8112 18.3886 22.0969C18.1053 20.7113 17.1192 19.2058 16.1894 18.7173C14.664 17.9165 13.6779 19.0333 13.4854 20.4207C13.2839 21.8862 13.1114 24.4758 13.2657 25.9722Z" fill="#F3F6FA"/>
<path d="M59.891 28.0369C62.1446 28.0369 63.9334 28.5854 65.2609 29.6804C66.5883 30.7772 67.253 32.27 67.253 34.1604C67.253 36.0508 66.5883 37.5454 65.2609 38.6404C63.9334 39.7373 62.1446 40.2857 59.891 40.2857H56.9945V42.9407C56.9945 43.4038 56.8293 43.7996 56.4969 44.132C56.1646 44.4643 55.7578 44.6295 55.2748 44.6295H52.2893V28.0369H59.891ZM59.5895 36.5738C60.5556 36.5738 61.2839 36.3686 61.776 35.9564C62.2699 35.5442 62.5151 34.9449 62.5151 34.1604C62.5151 33.3759 62.2699 32.773 61.776 32.3499C61.2839 31.9286 60.5556 31.7179 59.5895 31.7179H54.0072L56.9945 32.9546V36.5738H59.5895Z" fill="#F3F6FA"/>
<path d="M85.6707 44.6295V28.0369H90.3777V44.6295H85.6707Z" fill="#F3F6FA"/>
<path d="M123.804 44.6295L122.508 41.4025H115.478L114.18 44.6295H109.384L116.715 28.0369H121.331L128.691 44.6295H123.804ZM116.866 37.9322H124.558L120.637 36.7863L118.978 32.6223L116.866 37.9322Z" fill="#F3F6FA"/>
<path d="M104.904 44.2827C104.148 44.5133 103.306 44.6295 102.376 44.6295H93.7809C93.7809 39.0763 93.7809 33.5212 93.7809 27.9679H107.379V30.454C107.379 30.9879 107.194 31.4419 106.827 31.8069C106.462 32.1737 106.021 32.359 105.508 32.359H98.6078V33.9334H102.376C103.306 33.9334 104.148 34.0496 104.904 34.2803C105.677 34.5182 106.353 34.8741 106.927 35.3462C107.51 35.8293 107.951 36.405 108.247 37.0714C108.541 37.7324 108.688 38.4679 108.688 39.2815C108.688 40.095 108.541 40.8305 108.247 41.4915C107.951 42.158 107.512 42.7337 106.927 43.2167C106.353 43.6907 105.677 44.0466 104.904 44.2827ZM103.471 38.3317C103.195 38.1011 102.752 37.9867 102.142 37.9867H98.6078V39.2724L96.109 40.618L99.198 40.5999H102.142C102.467 40.5999 102.743 40.5672 102.97 40.5018C103.171 40.4437 103.337 40.3584 103.466 40.2494C103.585 40.1459 103.674 40.0206 103.736 39.8735C103.803 39.7082 103.836 39.5121 103.836 39.2815C103.836 39.0508 103.803 38.8547 103.738 38.6949C103.68 38.5533 103.589 38.4298 103.471 38.3317Z" fill="#F3F6FA"/>
<path d="M80.7694 44.2827C80.0139 44.5133 79.1713 44.6295 78.2415 44.6295H69.6447C69.6447 40.066 69.6447 34.9631 69.6447 28.6416H72.552C72.8154 28.6416 73.0605 28.6889 73.2893 28.7815C73.5236 28.8759 73.7324 29.0157 73.914 29.1992C74.0974 29.3808 74.2355 29.586 74.3299 29.813C74.4261 30.04 74.4733 30.2815 74.4733 30.5393V33.9334H78.2415C79.1713 33.9334 80.0139 34.0496 80.7694 34.2803C81.543 34.5182 82.2167 34.8741 82.7905 35.3462C83.3753 35.8293 83.8166 36.405 84.1126 37.0714C84.4049 37.7324 84.552 38.4679 84.552 39.2815C84.552 40.095 84.4049 40.8305 84.1126 41.4915C83.8166 42.158 83.3753 42.7337 82.7905 43.2167C82.2167 43.6907 81.543 44.0466 80.7694 44.2827ZM79.3347 38.3317C79.0605 38.1011 78.6174 37.9867 78.0072 37.9867H74.4733V40.5999H78.0072C78.3323 40.5999 78.6083 40.5672 78.8335 40.5018C79.0369 40.4437 79.2022 40.3584 79.3311 40.2494C79.4509 40.1459 79.5399 40.0206 79.6017 39.8735C79.6671 39.7082 79.7016 39.5121 79.7016 39.2815C79.7016 39.0508 79.6689 38.8547 79.6035 38.6949C79.5436 38.5533 79.4546 38.4298 79.3347 38.3317Z" fill="#F3F6FA"/>
<path fill-rule="evenodd" clip-rule="evenodd" d="M142.919 22.687C150.138 22.687 155.991 28.54 155.991 35.7585C155.991 42.977 150.138 48.8299 142.919 48.8299C135.699 48.8299 129.848 42.977 129.848 35.7585C129.848 28.54 135.699 22.687 142.919 22.687ZM150.347 36.7899V29.6749H145.248L141.142 36.7899V39.868H146.798V41.8402H150.347V39.868H151.821V36.7899H150.347ZM144.467 36.7899L146.798 32.7512V35.5351L149.297 36.7881H146.798V36.7899H144.467ZM136.337 29.6768L132.127 33.8826L134.333 36.089L136.337 34.086V41.8402H139.887V29.6768H136.337Z" fill="#F3F6FA"/>
</g>
<defs>
<clipPath id="clip0_408_1259">
<rect width="156" height="60" fill="white"/>
</clipPath>
</defs>
</svg>
