<svg xmlns="http://www.w3.org/2000/svg" version="1.1" xmlns:xlink="http://www.w3.org/1999/xlink" width="178" height="178"><svg width="178" height="178" viewBox="0 0 178 178" fill="none" xmlns="http://www.w3.org/2000/svg">
<path d="M116.813 52.8436C116.813 54.4939 116.323 56.1071 115.406 57.4792C114.49 58.8513 113.186 59.9207 111.662 60.5523C110.137 61.1838 108.46 61.349 106.841 61.0271C105.222 60.7051 103.736 59.9105 102.569 58.7436C101.402 57.5767 100.607 56.09 100.285 54.4714C99.9634 52.8529 100.129 51.1753 100.76 49.6506C101.392 48.126 102.461 46.8229 103.833 45.9061C105.205 44.9892 106.819 44.4999 108.469 44.4999C110.682 44.4999 112.804 45.379 114.369 46.9437C115.933 48.5085 116.813 50.6307 116.813 52.8436ZM138.743 115.957C119.928 134.731 90.4741 142.622 50.9108 139.563C52.0187 147.833 53.5716 156.54 55.5694 165.686C55.8836 167.127 55.6126 168.634 54.8159 169.875C54.0192 171.117 52.7621 171.991 51.3211 172.305C50.9285 172.393 50.5274 172.438 50.1251 172.437C48.8582 172.435 47.6301 172 46.6439 171.205C45.6577 170.41 44.9725 169.302 44.7017 168.064C42.4257 157.667 40.7129 147.784 39.5633 138.416C30.1998 137.262 20.324 135.549 9.93607 133.277C8.50134 132.956 7.25232 132.079 6.46207 130.839C5.67181 129.599 5.40463 128.097 5.71891 126.661C6.0332 125.224 6.9034 123.971 8.13926 123.174C9.37512 122.378 10.8761 122.103 12.314 122.41C21.4504 124.403 30.1511 125.956 38.4161 127.068C35.3636 87.5119 43.2833 58.0654 62.0567 39.2572C92.4766 8.74692 140.752 17.3132 150.118 19.3435C152.21 19.7993 154.126 20.8463 155.64 22.36C157.154 23.8737 158.201 25.7903 158.656 27.8819C160.687 37.2478 169.26 85.5233 138.743 115.957ZM128.313 110.471C113.013 108.16 98.8556 101.007 87.9177 90.0615C76.9798 79.1161 69.8366 64.954 67.5358 49.6522C52.5379 66.583 46.586 92.9423 49.6593 128.32C85.0437 131.414 111.403 125.462 128.334 110.471H128.313ZM147.782 30.239C136.525 27.9117 124.985 27.2603 113.538 28.3061C99.4645 29.6967 87.5329 33.7504 77.9029 40.4462C78.2854 56.1488 84.6919 71.103 95.796 82.2123C106.9 93.3216 121.851 99.7351 137.554 100.125C144.243 90.4948 148.324 78.5702 149.694 64.4901C150.735 53.041 150.091 41.5011 147.782 30.239Z" fill="#FFCA10"></path>
</svg><style>@media (prefers-color-scheme: light) { :root { filter: none; } }
@media (prefers-color-scheme: dark) { :root { filter: none; } }
</style></svg>