<svg xmlns="http://www.w3.org/2000/svg" style="display:none">
<symbol id="button-outline" viewBox="0 0 272 272"><circle cx="136" cy="136" r="133" stroke-width="6" stroke-linecap="round" stroke-dasharray="30 30"/></symbol>
<symbol id="icon-advantage-delivery" viewBox="0 0 110 110"><circle cx="87.7381" cy="85.1191" r="18.3333" fill="#FFCA10"/>
<circle cx="37.9762" cy="22.262" r="10.4762" fill="#FFCA10"/>
<path d="M105.782 43.5102L97.1083 27.8695C96.6441 27.0331 95.9647 26.336 95.1404 25.8506C94.3161 25.3652 93.377 25.1091 92.4204 25.1088H72.0361V20.9301C72.0361 19.0373 70.4978 17.499 68.605 17.499H12.853C12.0238 17.499 11.3491 18.1715 11.3491 19.0029C11.3491 19.8322 12.0238 20.5068 12.853 20.5068H68.605C68.8392 20.5068 69.0282 20.6959 69.0282 20.9301V66.9066H12.853C12.0238 66.9066 11.3491 67.5813 11.3491 68.4106V77.7777C11.3491 79.6684 12.8896 81.2088 14.7823 81.2088H17.6892C18.4368 87.5574 23.853 92.501 30.3993 92.501C36.9478 92.501 42.364 87.5574 43.1095 81.2088H69.1163C69.8618 87.5574 75.278 92.501 81.8265 92.501C88.3728 92.501 93.789 87.5574 94.5366 81.2088H106.166C108.059 81.2088 109.597 79.6684 109.597 77.7777V58.2613C109.597 53.1137 108.278 48.0111 105.782 43.5102ZM14.357 77.7777V69.9145H22.1665C19.7388 71.9598 18.078 74.8881 17.6892 78.201H14.7823C14.5482 78.201 14.357 78.0098 14.357 77.7777ZM30.3993 89.4932C25.0025 89.4932 20.6089 85.1018 20.6089 79.7049C20.6089 74.3059 25.0025 69.9145 30.3993 69.9145C35.7984 69.9145 40.1898 74.3059 40.1898 79.7049C40.1898 85.1018 35.7984 89.4932 30.3993 89.4932ZM69.0282 78.201H43.1095C42.7206 74.8881 41.062 71.9598 38.6321 69.9145H69.0282V78.201ZM81.8265 89.4932C76.4275 89.4932 72.0361 85.1018 72.0361 79.7049C72.0361 74.3059 76.4275 69.9145 81.8265 69.9145C87.2234 69.9145 91.6169 74.3059 91.6169 79.7049C91.6169 85.1018 87.2234 89.4932 81.8265 89.4932ZM106.589 71.21C104.969 70.5998 103.814 69.0336 103.814 67.2031V62.6098C103.814 62.3756 104.005 62.1865 104.237 62.1865H106.589V71.21ZM106.589 59.1787H104.237C102.346 59.1787 100.806 60.717 100.806 62.6098V67.2031C100.806 70.7072 103.292 73.6398 106.589 74.3338V77.7777C106.589 78.0098 106.4 78.201 106.166 78.201H94.5366C93.789 71.8502 88.3728 66.9066 81.8265 66.9066C77.9013 66.9066 74.3843 68.6813 72.0361 71.4721V28.1166H92.4204C93.2755 28.1166 94.064 28.5807 94.4765 29.3283L103.15 44.9689C105.403 49.0373 106.586 53.6109 106.589 58.2613V59.1787ZM81.8263 84.5756C79.1403 84.5756 76.9551 82.3904 76.9551 79.7045C76.9551 77.0185 79.1403 74.8333 81.8263 74.8333C84.5122 74.8333 86.6974 77.0185 86.6974 79.7045C86.6974 82.3904 84.5122 84.5756 81.8263 84.5756ZM81.8263 77.8413C80.7989 77.8413 79.9629 78.6773 79.9629 79.7047C79.9629 80.7321 80.7989 81.568 81.8263 81.568C82.8537 81.568 83.6896 80.7321 83.6896 79.7047C83.6896 78.6773 82.8537 77.8413 81.8263 77.8413ZM30.3996 84.5756C27.7136 84.5756 25.5284 82.3904 25.5284 79.7045C25.5284 77.0185 27.7136 74.8333 30.3996 74.8333C33.0855 74.8333 35.2707 77.0185 35.2707 79.7045C35.2707 82.3904 33.0855 84.5756 30.3996 84.5756ZM30.3996 77.8413C29.3722 77.8413 28.5362 78.6773 28.5362 79.7047C28.5362 80.7321 29.3722 81.568 30.3996 81.568C31.4269 81.568 32.2629 80.7321 32.2629 79.7047C32.2629 78.6773 31.4269 77.8413 30.3996 77.8413ZM99.9346 53.912C99.6796 53.912 99.4226 53.8837 99.1676 53.8255L76.5151 48.6471C74.9446 48.2881 73.848 46.9124 73.848 45.3017V33.3601C73.848 31.4677 75.3876 29.9282 77.28 29.9282H90.7178C91.3302 29.9283 91.9315 30.0923 92.4592 30.4031C92.987 30.7139 93.422 31.1602 93.7192 31.6957L101.566 45.8468C102.18 46.9557 102.711 48.1087 103.154 49.2963C103.369 49.8735 103.424 50.4982 103.313 51.104C103.201 51.7097 102.928 52.274 102.521 52.7368C102.199 53.1058 101.801 53.4015 101.355 53.6042C100.909 53.8069 100.425 53.9118 99.9346 53.912ZM77.28 32.936C77.1675 32.9361 77.0598 32.9809 76.9803 33.0604C76.9008 33.1399 76.856 33.2477 76.8559 33.3601V45.3017C76.8559 45.5007 76.9914 45.6706 77.1852 45.7149L99.8379 50.893C100.055 50.9425 100.194 50.8277 100.258 50.7551C100.332 50.6711 100.405 50.5323 100.336 50.3476C99.9452 49.3001 99.4771 48.2833 98.9353 47.3054L91.0884 33.1545C91.0517 33.0883 90.9979 33.0331 90.9327 32.9947C90.8675 32.9563 90.7933 32.936 90.7176 32.936H77.28ZM44.4437 24.7908C34.013 24.7908 25.5288 33.2771 25.5288 43.7057C25.5288 54.1363 34.013 62.6205 44.4437 62.6205C54.8722 62.6205 63.3585 54.1363 63.3585 43.7057C63.3585 33.2771 54.8722 24.7908 44.4437 24.7908ZM44.4437 59.6127C35.6716 59.6127 28.5366 52.4777 28.5366 43.7057C28.5366 34.9357 35.6716 27.7986 44.4437 27.7986C53.2136 27.7986 60.3507 34.9357 60.3507 43.7057C60.3507 52.4777 53.2136 59.6127 44.4437 59.6127ZM52.8913 48.5848C52.5734 49.1369 51.9954 49.4441 51.4025 49.4441C51.1103 49.4441 50.8159 49.3711 50.5452 49.2143L43.5843 45.1945C43.0708 44.898 42.7249 44.3416 42.7249 43.7057V34.7553C42.7249 33.8078 43.4941 33.0365 44.4437 33.0365C45.3933 33.0365 46.1624 33.8078 46.1624 34.7553V42.7152L52.264 46.2365C52.6584 46.4649 52.946 46.8405 53.0636 47.2808C53.1813 47.7211 53.1193 48.1901 52.8913 48.5848ZM17.8426 27.7997H1.90869C1.50983 27.7997 1.12731 27.6413 0.845269 27.3592C0.563232 27.0772 0.404785 26.6947 0.404785 26.2958C0.404785 25.8969 0.563232 25.5144 0.845269 25.2324C1.12731 24.9503 1.50983 24.7919 1.90869 24.7919H17.8426C18.2414 24.7919 18.624 24.9503 18.906 25.2324C19.188 25.5144 19.3465 25.8969 19.3465 26.2958C19.3465 26.6947 19.188 27.0772 18.906 27.3592C18.624 27.6413 18.2414 27.7997 17.8426 27.7997ZM17.8426 39.4071H1.90869C1.50983 39.4071 1.12731 39.2486 0.845269 38.9666C0.563232 38.6846 0.404785 38.302 0.404785 37.9032C0.404785 37.5043 0.563232 37.1218 0.845269 36.8397C1.12731 36.5577 1.50983 36.3993 1.90869 36.3993H17.8426C18.2414 36.3993 18.624 36.5577 18.906 36.8397C19.188 37.1218 19.3465 37.5043 19.3465 37.9032C19.3465 38.302 19.188 38.6846 18.906 38.9666C18.624 39.2486 18.2414 39.4071 17.8426 39.4071ZM17.8426 51.0142H1.90869C1.50983 51.0142 1.12731 50.8558 0.845269 50.5737C0.563232 50.2917 0.404785 49.9092 0.404785 49.5103C0.404785 49.1115 0.563232 48.7289 0.845269 48.4469C1.12731 48.1649 1.50983 48.0064 1.90869 48.0064H17.8426C18.2414 48.0064 18.624 48.1649 18.906 48.4469C19.188 48.7289 19.3465 49.1115 19.3465 49.5103C19.3465 49.9092 19.188 50.2917 18.906 50.5737C18.624 50.8558 18.2414 51.0142 17.8426 51.0142ZM17.8426 62.6216H1.90869C1.50983 62.6216 1.12731 62.4631 0.845269 62.1811C0.563232 61.8991 0.404785 61.5165 0.404785 61.1177C0.404785 60.7188 0.563232 60.3363 0.845269 60.0543C1.12731 59.7722 1.50983 59.6138 1.90869 59.6138H17.8426C18.2414 59.6138 18.624 59.7722 18.906 60.0543C19.188 60.3363 19.3465 60.7188 19.3465 61.1177C19.3465 61.5165 19.188 61.8991 18.906 62.1811C18.624 62.4631 18.2414 62.6216 17.8426 62.6216Z" fill="#F3F6FA"/></symbol>
<symbol id="icon-advantage-price" viewBox="0 0 110 110"><ellipse cx="78.5714" cy="30.119" rx="27.5" ry="27.5" fill="#FFCA10"/>
<circle cx="27.5" cy="81.1905" r="14.4048" fill="#FFCA10"/>
<path d="M88.123 42.2655L90.3096 33.0396C90.4851 32.3064 90.4548 31.5389 90.2219 30.8218C89.9891 30.1047 89.5628 29.4659 88.9899 28.9756L81.8 22.7962L78.1394 14.0483C77.8502 13.3535 77.3752 12.7517 76.7664 12.3092C76.1577 11.8666 75.4388 11.6004 74.6887 11.5396L65.2386 10.7555L57.1317 5.83662C56.4896 5.44514 55.7522 5.23804 55.0001 5.23804C54.2481 5.23804 53.5106 5.44514 52.8685 5.83662L44.7617 10.7556L35.3112 11.5398C34.5611 11.6006 33.8423 11.8669 33.2336 12.3095C32.6249 12.752 32.1499 13.3537 31.8607 14.0485L28.1999 22.7964L21.0103 28.9755C20.4374 29.4657 20.011 30.1045 19.778 30.8217C19.5451 31.5388 19.5146 32.3063 19.6901 33.0396L21.8769 42.2657L19.6901 51.4917C19.5146 52.2249 19.545 52.9924 19.7779 53.7095C20.0108 54.4265 20.4371 55.0654 21.0099 55.5556L28.1997 61.7348L31.8605 70.4828C32.1496 71.1777 32.6247 71.7794 33.2334 72.222C33.8421 72.6646 34.561 72.9309 35.3112 72.9917L39.1026 73.3062V100.842C39.1026 102.182 39.7754 103.414 40.9022 104.138C41.5328 104.545 42.2672 104.762 43.0177 104.762C43.5705 104.762 44.1258 104.644 44.6476 104.406L54.9999 99.677L65.3519 104.405C65.9484 104.679 66.6043 104.798 67.259 104.751C67.9137 104.705 68.5461 104.494 69.0975 104.137C69.6505 103.784 70.1053 103.296 70.4199 102.72C70.7345 102.144 70.8986 101.498 70.8971 100.842V95.6277C70.8971 94.5521 70.0251 93.6801 68.9496 93.6801C67.8741 93.6801 67.002 94.5521 67.002 95.6277L67.0026 100.851C66.9987 100.857 66.9859 100.864 66.9706 100.862L55.8093 95.7645C55.5554 95.6486 55.2794 95.5886 55.0002 95.5886C54.721 95.5886 54.4451 95.6486 54.1911 95.7645L43.0217 100.867C43.016 100.865 43.0107 100.862 43.0066 100.858C43.0025 100.853 42.9996 100.848 42.9984 100.842V73.6289L44.7618 73.7752L52.8689 78.6947C53.5112 79.0855 54.2485 79.2924 55.0003 79.2928C55.7372 79.2928 56.4745 79.0933 57.1319 78.6945L65.2388 73.7754L67.0022 73.6291V78.1673C67.0022 79.2428 67.8742 80.1148 68.9498 80.1148C70.0253 80.1148 70.8973 79.2428 70.8973 78.1673V73.3058L74.6887 72.9911C75.4389 72.9303 76.1578 72.664 76.7665 72.2214C77.3752 71.7789 77.8502 71.1771 78.1394 70.4822L81.8 61.7342L88.9901 55.555C89.5628 55.0648 89.9891 54.4259 90.2219 53.7089C90.4547 52.9919 90.4851 52.2245 90.3096 51.4913L88.123 42.2655ZM84.2264 42.7148L86.5195 52.3901C86.538 52.4683 86.5118 52.5493 86.4511 52.6014L78.9118 59.0807C78.682 59.2782 78.5015 59.5265 78.3847 59.806L74.546 68.9791C74.5151 69.0529 74.4463 69.1029 74.3664 69.1095L64.4591 69.9315C64.1585 69.9564 63.8677 70.0509 63.6099 70.2076L55.1107 75.3645C55.0773 75.3848 55.039 75.3956 54.9999 75.3956C54.9608 75.3957 54.9224 75.385 54.8889 75.3647L46.3896 70.2074C46.1317 70.0508 45.841 69.9563 45.5403 69.9313L35.6333 69.1095C35.5942 69.1063 35.5568 69.0924 35.5251 69.0694C35.4934 69.0464 35.4687 69.015 35.4537 68.9789L31.615 59.806C31.4981 59.5265 31.3176 59.2782 31.0879 59.0807L23.5489 52.6012C23.5192 52.5757 23.497 52.5425 23.4849 52.5052C23.4728 52.4679 23.4712 52.428 23.4803 52.3899L25.7735 42.7148C25.8434 42.4193 25.8434 42.1116 25.7735 41.8163L23.4803 32.1412C23.4619 32.063 23.4881 31.982 23.5491 31.9297L31.0882 25.4501C31.318 25.2527 31.4985 25.0044 31.6154 24.7249L35.4539 15.5522C35.4848 15.4782 35.5538 15.4282 35.6335 15.4216L45.5409 14.5996C45.8416 14.5747 46.1323 14.4802 46.3902 14.3235L54.8895 9.16619C54.9229 9.14593 54.9612 9.13523 55.0003 9.13527C55.0393 9.1353 55.0776 9.14606 55.1109 9.16638L63.6101 14.3235C63.868 14.4801 64.1587 14.5746 64.4593 14.5996L74.3666 15.4216C74.4056 15.4248 74.4431 15.4386 74.4748 15.4616C74.5065 15.4846 74.5313 15.5159 74.5464 15.552L78.3849 24.7249C78.5019 25.0043 78.6823 25.2526 78.912 25.4501L86.4513 31.9299C86.512 31.9822 86.5382 32.063 86.5197 32.1412L84.2266 41.8163C84.1565 42.1117 84.1564 42.4194 84.2264 42.7148Z" fill="#F3F6FA"/>
<path d="M54.9999 17.1934C41.1753 17.1934 29.928 28.4407 29.928 42.2653C29.928 56.09 41.1753 67.3371 54.9999 67.3371C68.8248 67.3371 80.0719 56.0898 80.0719 42.2653C80.0721 28.4407 68.8248 17.1934 54.9999 17.1934ZM54.9999 63.4421C43.323 63.4421 33.8232 53.9422 33.8232 42.2653C33.8232 30.5884 43.323 21.0886 54.9999 21.0886C66.6769 21.0886 76.1769 30.5886 76.1769 42.2655C76.1769 53.9424 66.6769 63.4421 54.9999 63.4421Z" fill="#F3F6FA"/>
<path d="M57.9517 40.3008C55.8502 39.558 53.5232 38.6584 52.1968 37.6181C51.6856 37.2171 51.4649 36.3756 51.6348 35.4743C51.8016 34.5892 52.4017 33.5166 53.5853 33.1599C56.4001 32.3126 59.5728 34.7836 59.6401 34.8369C60.4765 35.5085 61.6991 35.3776 62.3742 34.5422C63.0501 33.7056 62.9201 32.4794 62.0834 31.8032C61.9503 31.6957 59.7372 29.9365 56.8064 29.3106V27.9589C56.8064 26.8834 55.9344 26.0114 54.8588 26.0114C53.7831 26.0114 52.9113 26.8834 52.9113 27.9589V29.3092C52.7604 29.3451 52.6105 29.3854 52.4619 29.4301C50.0739 30.1496 48.2905 32.189 47.8072 34.7529C47.3644 37.1026 48.1253 39.3747 49.7931 40.6827C51.2194 41.8016 53.2072 42.7548 56.6536 43.9732C59.2933 44.9061 59.1321 47.1562 59.0202 47.8237C58.7346 49.5215 57.3069 51.356 54.8462 51.3724C52.5811 51.3873 51.814 51.2649 50.0434 50.1067C49.1432 49.5178 47.9363 49.7703 47.3473 50.6703C46.7584 51.5704 47.0109 52.7774 47.9109 53.3663C49.8656 54.6452 51.2365 55.08 52.9113 55.2139V56.5719C52.9113 57.6474 53.7833 58.5194 54.8588 58.5194C55.9344 58.5194 56.8064 57.6474 56.8064 56.5719V55.0316C60.2038 54.2031 62.3826 51.3164 62.8612 48.4697C63.4812 44.7809 61.5541 41.5743 57.9517 40.3008Z" fill="#F3F6FA"/>
<path d="M69.2414 88.8205C70.301 88.648 71.0201 87.6491 70.8475 86.5895C70.675 85.5299 69.6761 84.8109 68.6165 84.9834C67.557 85.156 66.8379 86.1549 67.0105 87.2144C67.183 88.274 68.1819 88.9931 69.2414 88.8205Z" fill="#F3F6FA"/></symbol>
<symbol id="icon-advantage-quality" viewBox="0 0 110 110"><circle cx="25.5357" cy="21.6071" r="21.6071" fill="#FFCA10"/>
<circle cx="77.9167" cy="11.131" r="11.131" fill="#FFCA10"/>
<path d="M55 70.4687C50.3124 70.4687 45.7026 69.2705 41.6084 66.9878C37.5142 64.7052 34.0715 61.4138 31.6071 57.4263C29.1427 53.4389 27.7384 48.8876 27.5277 44.2048C27.317 39.522 28.3069 34.863 30.4032 30.6704C32.4995 26.4777 35.6328 22.8905 39.5055 20.2493C43.3782 17.6082 47.8617 16.0008 52.5303 15.5798C57.1989 15.1589 61.8977 15.9383 66.1803 17.8441C70.463 19.7498 74.1874 22.7187 77 26.4687C77.2735 26.8334 77.3909 27.2918 77.3264 27.7431C77.262 28.1943 77.0209 28.6015 76.6562 28.875C76.2915 29.1485 75.8331 29.2659 75.3819 29.2015C74.9306 29.137 74.5235 28.8959 74.25 28.5312C70.5677 23.6522 65.1599 20.365 59.1334 19.3425C53.1068 18.3201 46.9174 19.6397 41.832 23.0312C36.7465 26.4228 33.1497 31.6298 31.7777 37.5865C30.4056 43.5431 31.3622 49.799 34.4515 55.0735C37.5409 60.348 42.5294 64.2422 48.3959 65.9592C54.2625 67.6761 60.5635 67.0858 66.0091 64.3092C71.4547 61.5326 75.6331 56.7796 77.6891 51.0231C79.7451 45.2666 79.5232 38.9419 77.0687 33.3437C76.9641 33.1352 76.9031 32.9075 76.8893 32.6745C76.8756 32.4416 76.9094 32.2083 76.9887 31.9889C77.0681 31.7695 77.1913 31.5685 77.3508 31.3982C77.5103 31.2279 77.7028 31.0919 77.9166 30.9984C78.1304 30.905 78.361 30.856 78.5944 30.8546C78.8277 30.8531 79.0589 30.8992 79.2738 30.9899C79.4888 31.0807 79.683 31.2143 79.8446 31.3826C80.0063 31.5509 80.1319 31.7503 80.214 31.9687C82.0408 36.1545 82.7964 40.7293 82.4125 45.2802C82.0287 49.831 80.5174 54.2146 78.0153 58.0352C75.5131 61.8558 72.0989 64.9931 68.0807 67.1638C64.0625 69.3346 59.567 70.4704 55 70.4687ZM62.9406 55.6875C63.2072 55.4965 63.4137 55.2331 63.5355 54.9286C63.6573 54.624 63.6894 54.291 63.6281 53.9687L62.4593 47.0937L67.4093 42.264C67.641 42.041 67.8055 41.7573 67.884 41.4454C67.9625 41.1335 67.9519 40.8058 67.8534 40.4997C67.7549 40.1935 67.5725 39.9211 67.3269 39.7134C67.0813 39.5057 66.7823 39.3712 66.464 39.325L59.589 38.3281L56.5468 32.2265C56.4043 31.9405 56.1848 31.6999 55.9131 31.5317C55.6414 31.3636 55.3281 31.2745 55.0086 31.2745C54.689 31.2745 54.3757 31.3636 54.104 31.5317C53.8323 31.6999 53.6128 31.9405 53.4703 32.2265L50.4109 38.4312L43.5359 39.4281C43.2176 39.4743 42.9186 39.6089 42.673 39.8165C42.4274 40.0242 42.245 40.2966 42.1465 40.6028C42.048 40.909 42.0374 41.2366 42.1159 41.5486C42.1944 41.8605 42.3589 42.1441 42.5906 42.3672L47.5406 47.1969L46.3718 54.0719C46.3194 54.3872 46.356 54.7109 46.4774 55.0066C46.5989 55.3022 46.8004 55.5582 47.0593 55.7457C47.3182 55.9331 47.6242 56.0447 47.943 56.0678C48.2618 56.0909 48.5808 56.0247 48.864 55.8765L55 52.5937L61.1187 55.8078C61.4025 55.955 61.7218 56.0201 62.0406 55.9958C62.3594 55.9715 62.6651 55.8588 62.9234 55.6703L62.9406 55.6875ZM54.2093 49.139L50.3593 51.15L51.0984 46.8703C51.1435 46.5967 51.1217 46.3162 51.0349 46.0528C50.9481 45.7895 50.7989 45.551 50.6 45.3578L47.489 42.3328L51.7859 41.714C52.0613 41.6727 52.3225 41.565 52.547 41.4004C52.7716 41.2357 52.9527 41.0189 53.075 40.7687L55 36.8672L56.925 40.7515C57.0472 41.0017 57.2284 41.2185 57.4529 41.3832C57.6775 41.5478 57.9386 41.6555 58.214 41.6969L62.5109 42.3156L59.4 45.3406C59.201 45.5338 59.0518 45.7723 58.965 46.0356C58.8782 46.299 58.8564 46.5795 58.9015 46.8531L59.6406 51.1328L55.8078 49.1219C55.5613 48.9924 55.287 48.9247 55.0086 48.9247C54.7301 48.9247 54.4558 48.9924 54.2093 49.1219V49.139ZM63.7484 81.2625C65.6243 80.6269 67.2574 79.4261 68.4234 77.825C69.0869 76.9847 69.8891 76.2639 70.7953 75.6937C71.8272 75.3276 72.9144 75.1416 74.0093 75.1437C75.95 75.2037 77.8628 74.6701 79.4921 73.614C80.8874 72.2567 81.8348 70.5057 82.2078 68.5953C82.4459 67.5349 82.8645 66.5233 83.4453 65.6047C84.2093 64.8401 85.0987 64.2123 86.075 63.7484C87.8657 62.9586 89.3713 61.6389 90.389 59.9672C91.0529 58.154 91.1489 56.1815 90.664 54.3125C90.4189 53.2362 90.3608 52.1257 90.4921 51.0297C90.8427 50.033 91.36 49.1031 92.0218 48.2797C93.2905 46.7785 94.0701 44.9254 94.2562 42.9687C94.0672 40.9962 93.275 39.1297 91.9875 37.6234C91.3253 36.8001 90.808 35.8702 90.4578 34.8734C90.3267 33.7774 90.3849 32.667 90.6296 31.5906C91.1156 29.7216 91.0197 27.7489 90.3546 25.9359C89.3378 24.2634 87.8319 22.9435 86.0406 22.1547C85.0643 21.6908 84.1749 21.063 83.4109 20.2984C82.8304 19.3796 82.4119 18.3681 82.1734 17.3078C81.7994 15.3977 80.8521 13.647 79.4578 12.289C77.8284 11.233 75.9156 10.6994 73.975 10.7594C72.88 10.7615 71.7928 10.5755 70.7609 10.2094C69.8596 9.63219 69.0633 8.90564 68.4062 8.06092C67.2402 6.45983 65.6071 5.25902 63.7312 4.62342C61.828 4.3855 59.8974 4.73324 58.1968 5.62029C57.196 6.12956 56.1143 6.46105 55 6.59998C53.8898 6.48267 52.8083 6.1745 51.8031 5.68904C50.1021 4.80303 48.1719 4.45535 46.2687 4.69217C44.3928 5.32777 42.7597 6.52858 41.5937 8.12967C40.9302 8.96996 40.128 9.69074 39.2218 10.2609C38.1899 10.627 37.1027 10.8131 36.0078 10.8109C34.0671 10.7509 32.1543 11.2846 30.525 12.3406C29.1297 13.6979 28.1823 15.4489 27.8093 17.3594C27.5712 18.4198 27.1526 19.4313 26.5718 20.35C25.8078 21.1145 24.9184 21.7424 23.9421 22.2062C22.1514 22.996 20.6458 24.3157 19.6281 25.9875C19.4444 26.3712 19.3059 26.7749 19.2156 27.1906C19.1176 27.6464 19.2047 28.1225 19.4577 28.5142C19.7107 28.9058 20.109 29.1809 20.5648 29.2789C21.0206 29.3769 21.4967 29.2898 21.8884 29.0368C22.28 28.7837 22.5551 28.3855 22.6531 27.9297C22.6875 27.7753 22.7394 27.6254 22.8078 27.4828C23.5571 26.4777 24.5593 25.689 25.7125 25.1969C27.0455 24.5042 28.2352 23.5652 29.2187 22.4297C30.0886 21.1779 30.7127 19.7722 31.0578 18.2875C31.2887 17.0601 31.8402 15.9157 32.6562 14.9703C33.7577 14.3971 34.9908 14.1244 36.2312 14.1797C37.763 14.1746 39.2798 13.8771 40.7 13.3031C42.0207 12.5632 43.1875 11.5772 44.1375 10.3984C44.8801 9.37435 45.8829 8.56735 47.0421 8.06092C48.2411 8.04313 49.4247 8.33309 50.4796 8.90311C51.8821 9.56848 53.399 9.95936 54.9484 10.0547C56.4977 9.95894 58.0145 9.56808 59.4171 8.90311C60.4721 8.33309 61.6556 8.04313 62.8546 8.06092C64.0475 8.52498 65.0928 9.30296 65.8796 10.3125C66.8293 11.4915 67.9962 12.4776 69.3171 13.2172C70.7362 13.7971 72.253 14.1004 73.7859 14.1109C75.0266 14.0806 76.2536 14.377 77.3437 14.9703C78.15 15.9243 78.6896 17.0747 78.9078 18.3047C79.2633 19.7919 79.8992 21.1977 80.7812 22.4469C81.807 23.5693 83.038 24.4852 84.4078 25.1453C85.5569 25.6609 86.5478 26.4738 87.2781 27.5C87.5975 28.6936 87.5975 29.9502 87.2781 31.1437C86.9403 32.6449 86.8936 34.1969 87.1406 35.7156C87.5692 37.153 88.2693 38.4949 89.2031 39.6687C90.0805 40.6352 90.6751 41.8244 90.9218 43.1062C90.6751 44.388 90.0805 45.5772 89.2031 46.5437C88.2697 47.7178 87.5696 49.0596 87.1406 50.4969C86.8936 52.0156 86.9403 53.5676 87.2781 55.0687C87.5967 56.2624 87.5967 57.5188 87.2781 58.7125C86.5287 59.7176 85.5265 60.5063 84.3734 60.9984C83.0309 61.6052 81.8129 62.4561 80.7812 63.5078C79.9113 64.7596 79.2872 66.1652 78.9421 67.65C78.7112 68.8773 78.1597 70.0217 77.3437 70.9672C76.2422 71.5403 75.0091 71.813 73.7687 71.7578C72.2369 71.7628 70.7202 72.0603 69.3 72.6344C67.9792 73.3743 66.8124 74.3603 65.8625 75.539C65.1198 76.5631 64.117 77.3701 62.9578 77.8765C61.7587 77.8951 60.575 77.6051 59.5203 77.0344C58.1178 76.369 56.6009 75.9781 55.0515 75.8828C53.5022 75.9785 51.9854 76.3694 50.5828 77.0344C49.5281 77.6051 48.3443 77.8951 47.1453 77.8765C45.9524 77.4125 44.9072 76.6345 44.1203 75.625C43.1706 74.4459 42.0037 73.4599 40.6828 72.7203C39.2637 72.1404 37.7469 71.837 36.214 71.8265C34.9733 71.8568 33.7463 71.5605 32.6562 70.9672C31.8499 70.0131 31.3103 68.8627 31.0921 67.6328C30.7366 66.1456 30.1007 64.7397 29.2187 63.4906C28.1929 62.3682 26.9619 61.4523 25.5921 60.7922C24.443 60.2765 23.4522 59.4637 22.7218 58.4375C22.4024 57.2439 22.4024 55.9873 22.7218 54.7937C23.0596 53.2926 23.1063 51.7406 22.8593 50.2219C22.4307 48.7845 21.7306 47.4426 20.7968 46.2687C19.9195 45.3022 19.3249 44.113 19.0781 42.8312C19.3257 41.5497 19.9202 40.3607 20.7968 39.3937L21.364 38.5687C22.0467 37.6245 22.5533 36.5648 22.8593 35.4406C23.0399 34.3884 23.0399 33.3131 22.8593 32.2609C22.8322 32.0352 22.761 31.817 22.6496 31.6189C22.5382 31.4207 22.3888 31.2464 22.2101 31.106C22.0313 30.9655 21.8267 30.8617 21.6078 30.8003C21.3889 30.739 21.16 30.7213 20.9343 30.7484C20.7086 30.7755 20.4905 30.8468 20.2923 30.9582C20.0941 31.0696 19.9198 31.2189 19.7794 31.3977C19.6389 31.5764 19.5351 31.7811 19.4737 32C19.4124 32.2189 19.3947 32.4477 19.4218 32.6734C19.535 33.339 19.535 34.0188 19.4218 34.6844C19.2028 35.3998 18.8659 36.0736 18.425 36.6781L17.8921 37.4515C16.6151 39.0198 15.8635 40.9499 15.7437 42.9687C15.9327 44.9413 16.7249 46.8077 18.0125 48.314C18.6746 49.1373 19.1919 50.0673 19.5421 51.064C19.6732 52.1601 19.615 53.2705 19.3703 54.3469C18.8843 56.2158 18.9803 58.1886 19.6453 60.0015C20.6621 61.674 22.168 62.9939 23.9593 63.7828C24.9356 64.2467 25.825 64.8745 26.589 65.639C27.1695 66.5578 27.588 67.5694 27.8265 68.6297C28.2005 70.5397 29.1478 72.2904 30.5421 73.6484C32.1715 74.7044 34.0843 75.2381 36.025 75.1781C37.1199 75.176 38.2071 75.362 39.239 75.7281C40.145 76.2986 40.9471 77.0193 41.6109 77.8594C42.7769 79.4604 44.41 80.6612 46.2859 81.2969C48.1891 81.5326 50.119 81.185 51.8203 80.3C52.8169 79.7986 53.8926 79.4729 55 79.3375C56.1101 79.4548 57.1916 79.763 58.1968 80.2484C59.5622 80.8963 61.0374 81.2811 62.5453 81.3828C62.9445 81.3815 63.3423 81.3354 63.7312 81.2453L63.7484 81.2625ZM27.5 63.7656L23.8562 103.881L46.8359 80.8844C47.1175 80.5556 47.2646 80.1326 47.2479 79.7C47.2312 79.2675 47.0519 78.8571 46.7458 78.551C46.4397 78.2449 46.0293 78.0656 45.5968 78.0489C45.1642 78.0322 44.7413 78.1793 44.4125 78.4609L23.7875 99.0859L21.914 87.7937C21.8547 87.4415 21.6871 87.1165 21.4345 86.8639C21.1819 86.6113 20.8569 86.4437 20.5046 86.3844L9.19527 84.4937L28.325 65.3125C28.6065 64.9837 28.7537 64.5607 28.737 64.1282C28.7202 63.6956 28.5409 63.2853 28.2348 62.9792C27.9287 62.6731 27.5184 62.4937 27.0858 62.477C26.6533 62.4603 26.2303 62.6075 25.9015 62.889L4.39995 84.425C4.1784 84.6482 4.02233 84.9279 3.94873 85.2336C3.87514 85.5393 3.88683 85.8594 3.98255 86.159C4.07826 86.4585 4.25433 86.7261 4.49158 86.9325C4.72883 87.1389 5.01816 87.2763 5.32808 87.3297L18.7 89.564L20.9343 102.936C20.9877 103.246 21.1251 103.535 21.3315 103.772C21.5379 104.01 21.8055 104.186 22.105 104.281C22.4046 104.377 22.7247 104.389 23.0304 104.315C23.3361 104.242 23.6158 104.086 23.839 103.864L27.5 63.7656ZM93.8609 75.1265C94.181 74.8045 94.3607 74.3689 94.3607 73.9148C94.3607 73.4608 94.181 73.0251 93.8609 72.7031L84.2187 63.0953C83.8899 62.8137 83.467 62.6666 83.0344 62.6833C82.6018 62.7 82.1915 62.8793 81.8854 63.1854C81.5793 63.4915 81.4 63.9019 81.3833 64.3344C81.3666 64.767 81.5137 65.1899 81.7953 65.5187L91.3859 75.1094C91.7079 75.4295 92.1435 75.6092 92.5976 75.6092C93.0517 75.6092 93.4873 75.4295 93.8093 75.1094L93.8609 75.1265ZM87.8968 104.345C88.1977 104.248 88.4659 104.07 88.6721 103.831C88.8783 103.591 89.0145 103.299 89.0656 102.987L91.3 89.6156L104.672 87.3812C104.982 87.3279 105.271 87.1905 105.508 86.9841C105.746 86.7776 105.922 86.5101 106.017 86.2105C106.113 85.911 106.125 85.5909 106.051 85.2852C105.978 84.9794 105.822 84.6997 105.6 84.4765L100.719 79.5609C100.39 79.2793 99.967 79.1322 99.5344 79.1489C99.1018 79.1656 98.6915 79.3449 98.3854 79.651C98.0793 79.9571 97.9 80.3675 97.8833 80.8C97.8666 81.2326 98.0137 81.6556 98.2953 81.9844L100.805 84.4937L89.5125 86.3672C89.1602 86.4265 88.8352 86.5941 88.5826 86.8467C88.33 87.0993 88.1624 87.4243 88.1031 87.7765L86.2296 99.0687L66.5328 79.389C66.204 79.1075 65.781 78.9603 65.3485 78.977C64.9159 78.9937 64.5056 79.1731 64.1995 79.4792C63.8934 79.7853 63.714 80.1956 63.6973 80.6282C63.6806 81.0607 63.8278 81.4837 64.1093 81.8125L86.1437 103.881C86.3642 104.102 86.6407 104.259 86.9435 104.335C87.2463 104.41 87.564 104.402 87.8625 104.311L87.8968 104.345ZM96.25 75.625C95.91 75.625 95.5777 75.7258 95.2951 75.9146C95.0124 76.1035 94.7921 76.3719 94.662 76.686C94.532 77.0001 94.4979 77.3456 94.5642 77.679C94.6305 78.0124 94.7942 78.3187 95.0346 78.5591C95.275 78.7994 95.5812 78.9631 95.9146 79.0295C96.248 79.0958 96.5936 79.0617 96.9077 78.9316C97.2218 78.8016 97.4902 78.5813 97.679 78.2986C97.8679 78.016 97.9687 77.6837 97.9687 77.3437C97.9687 76.8879 97.7876 76.4507 97.4653 76.1284C97.143 75.8061 96.7058 75.625 96.25 75.625Z" fill="#F3F6FA"/></symbol>
<symbol id="icon-advantage-shipment" viewBox="0 0 110 110"><circle cx="30.1189" cy="19.6429" r="19.6429" fill="#FFCA10"/>
<circle cx="92.9761" cy="78.5715" r="11.7857" fill="#FFCA10"/>
<mask id="mask0_420_2786" style="mask-type:luminance" maskUnits="userSpaceOnUse" x="10" y="10" width="90" height="90">
<path d="M98.2737 98.2742V11.7263H11.7258V98.2742H98.2737Z" fill="white" stroke="white" stroke-width="2.5"/>
</mask>
<g mask="url(#mask0_420_2786)">
<path d="M83.6882 60.9351V49.0653H78.9387C78.3472 46.6716 77.398 44.3809 76.1231 42.2704L79.4823 38.9111L71.0891 30.5179L67.7298 33.8771C65.6194 32.6021 63.3286 31.6528 60.9349 31.0614V26.3118H49.0651V31.0614C46.6713 31.6529 44.3805 32.6021 42.27 33.8771L38.9108 30.5179L30.5177 38.9111L33.8768 42.2704C32.6019 44.3808 31.6527 46.6716 31.0612 49.0653H26.3118V60.9351H31.0612C31.6527 63.3288 32.6019 65.6196 33.8768 67.7301L30.5177 71.0894L38.9108 79.4825L42.27 76.1234C44.3805 77.3983 46.6713 78.3475 49.0651 78.939V83.6886H60.9349V78.939C63.3286 78.3476 65.6194 77.3983 67.7298 76.1234L71.0891 79.4825L79.4823 71.0894L76.1231 67.7301C77.398 65.6196 78.3472 63.3288 78.9387 60.9351H83.6882Z" stroke="#F3F6FA" stroke-width="2.5" stroke-miterlimit="10" stroke-linecap="round" stroke-linejoin="round"/>
<path d="M68.14 62.5866V47.4139L54.9998 39.8274L41.8599 47.4139V62.5866L54.9998 70.1731L68.14 62.5866Z" stroke="#F3F6FA" stroke-width="2.5" stroke-miterlimit="10" stroke-linecap="round" stroke-linejoin="round"/>
<path d="M42.2913 47.6629L54.9997 55.0001L67.8463 47.5832" stroke="#F3F6FA" stroke-width="2.5" stroke-miterlimit="10" stroke-linecap="round" stroke-linejoin="round"/>
<path d="M54.9998 55.0002V69.3395" stroke="#F3F6FA" stroke-width="2.5" stroke-miterlimit="10" stroke-linecap="round" stroke-linejoin="round"/>
<path d="M75.6307 17.8318C69.5208 14.4229 62.4864 12.4813 54.9998 12.4813" stroke="#F3F6FA" stroke-width="2.5" stroke-miterlimit="10" stroke-linecap="round" stroke-linejoin="round"/>
<path d="M96.2853 44.9124C94.7158 38.5133 91.7071 32.682 87.6233 27.7844" stroke="#F3F6FA" stroke-width="2.5" stroke-miterlimit="10" stroke-linecap="round" stroke-linejoin="round"/>
<path d="M91.3284 41.7023L96.3111 44.9725L97.7845 39.1881" stroke="#F3F6FA" stroke-width="2.5" stroke-miterlimit="10" stroke-linecap="round" stroke-linejoin="round"/>
<path d="M13.7144 65.088C18.2817 83.7086 35.0335 97.519 54.9999 97.519" stroke="#F3F6FA" stroke-width="2.5" stroke-miterlimit="10" stroke-linecap="round" stroke-linejoin="round"/>
<path d="M18.6712 68.2979L13.6886 65.0277L12.2151 70.8121" stroke="#F3F6FA" stroke-width="2.5" stroke-miterlimit="10" stroke-linecap="round" stroke-linejoin="round"/>
<path d="M65.0876 96.2858C83.7082 91.7184 97.5187 74.9666 97.5187 55.0002" stroke="#F3F6FA" stroke-width="2.5" stroke-miterlimit="10" stroke-linecap="round" stroke-linejoin="round"/>
<path d="M68.2976 91.3288L65.0273 96.3114L70.812 97.7849" stroke="#F3F6FA" stroke-width="2.5" stroke-miterlimit="10" stroke-linecap="round" stroke-linejoin="round"/>
<path d="M44.912 13.7146C26.2914 18.2819 12.481 35.0337 12.481 55.0001" stroke="#F3F6FA" stroke-width="2.5" stroke-miterlimit="10" stroke-linecap="round" stroke-linejoin="round"/>
<path d="M41.7022 18.6716L44.9725 13.6889L39.188 12.2155" stroke="#F3F6FA" stroke-width="2.5" stroke-miterlimit="10" stroke-linecap="round" stroke-linejoin="round"/>
</g></symbol>
<symbol id="icon-basket" viewBox="0 0 40 40"><path d="M3.85008 18.7367C3.78881 18.491 3.78431 18.2347 3.83691 17.987C3.88952 17.7394 3.99784 17.507 4.15367 17.3075C4.3095 17.1079 4.50873 16.9465 4.73624 16.8355C4.96376 16.7245 5.21358 16.6667 5.46674 16.6667H34.5334C34.7866 16.6667 35.0364 16.7245 35.2639 16.8355C35.4914 16.9465 35.6907 17.1079 35.8465 17.3075C36.0023 17.507 36.1106 17.7394 36.1632 17.987C36.2158 18.2347 36.2113 18.491 36.1501 18.7367L33.1317 30.8083C32.9515 31.5295 32.5354 32.1697 31.9495 32.6272C31.3637 33.0847 30.6417 33.3332 29.8984 33.3333H10.1017C9.35843 33.3332 8.63647 33.0847 8.05063 32.6272C7.46478 32.1697 7.04866 31.5295 6.86841 30.8083L3.85008 18.7383V18.7367Z" stroke-width="2" stroke-linejoin="round"/>
<path d="M15 23.3333V26.6667M25 23.3333V26.6667M10 16.6667L16.6667 6.66667M30 16.6667L23.3333 6.66667" stroke-width="2" stroke-linecap="round"/></symbol>
<symbol id="icon-heart" viewBox="0 0 40 40"><path d="M27.5719 6.25C22.5001 6.25 20.0001 11.25 20.0001 11.25C20.0001 11.25 17.5001 6.25 12.4282 6.25C8.30632 6.25 5.04225 9.69844 5.00007 13.8133C4.91413 22.3547 11.7758 28.4289 19.2969 33.5336C19.5043 33.6747 19.7493 33.7501 20.0001 33.7501C20.2509 33.7501 20.4958 33.6747 20.7032 33.5336C28.2235 28.4289 35.0852 22.3547 35.0001 13.8133C34.9579 9.69844 31.6938 6.25 27.5719 6.25Z" stroke-width="2" stroke-linecap="round" stroke-linejoin="round"/></symbol>
<symbol id="icon-search" viewBox="0 0 23 23"><path d="M19 19L15.375 15.375M17.3333 10.6667C17.3333 14.3486 14.3486 17.3333 10.6667 17.3333C6.98477 17.3333 4 14.3486 4 10.6667C4 6.98477 6.98477 4 10.6667 4C14.3486 4 17.3333 6.98477 17.3333 10.6667Z" stroke-linecap="round" stroke-linejoin="round"/></symbol>
<symbol id="logo" viewBox="0 0 156 60"><g clip-path="url(#clip0_408_1259)">
<path fill-rule="evenodd" clip-rule="evenodd" d="M33.2487 55.4074C36.7009 54.928 39.1997 54.5684 37.8922 50.5042C37.3165 48.7173 37.5381 47.8257 38.1246 46.1423C38.5786 44.8347 39.1053 43.6961 39.6355 42.4485C42.1979 36.4159 44.2427 33.1907 41.822 25.7234C40.273 31.7542 35.9128 39.8117 33.3214 45.8789C32.9128 46.836 32.5024 47.4897 32.1809 48.6719C31.0278 52.8904 32.595 54.7209 32.0284 55.8904C30.6664 58.6998 22.3801 59.5424 19.7524 58.5454C18.6392 58.1241 18.2397 56.9582 19.0659 55.9885C20.1483 54.7209 22.2112 54.0962 23.7039 52.7452C26.1646 50.5188 26.3916 43.3166 26.279 41.1011C26.1646 38.8148 23.7039 37.2984 21.6828 36.8553C19.6107 36.4013 16.9303 37.1114 15.3704 37.9504C13.6888 38.8565 12.414 40.0841 12.0581 42.5121C11.8837 43.6998 11.9691 44.9927 12.1779 46.1441C12.6864 48.9534 13.8613 48.6501 15.0145 49.1495C17.4352 50.1955 17.9491 52.6761 16.6507 55.2966C14.9727 57.3596 10.963 57.1852 7.99027 53.7803C3.69002 48.8499 2.97634 42.2016 1.83591 39.8081C1.77961 40.8832 2.32985 44.6441 2.72755 46.2476C3.79535 50.5533 7.44547 58.0805 12.2269 58.8269C14.5986 59.1955 16.6144 58.2875 18.0653 57.5521C18.1652 58.7851 19.8196 59.7984 21.2215 59.9437C23.7693 60.2088 28.3202 59.4824 30.7136 58.6598C32.4588 58.0587 33.2905 57.5357 33.2487 55.4074ZM18.819 54.4776C20.6658 52.1259 17.9346 47.0448 18.029 44.3444C18.0926 42.563 19.006 37.9522 22.5381 38.793C24.8898 39.3523 24.799 41.3935 24.6464 43.5163C24.5411 44.9419 24.3069 50.2663 23.2518 51.503C22.1222 52.8251 20.3153 54.2615 18.819 54.4776Z" fill="#F3F6FA"/>
<path fill-rule="evenodd" clip-rule="evenodd" d="M5.8547 37.4673C6.31051 37.184 6.72818 36.9135 7.09138 36.5793C7.41462 36.2815 7.8323 35.8293 8.12467 35.5914C8.73303 35.0993 10.9921 35.5969 11.6368 35.9492C12.0781 36.1907 12.6047 36.5666 13.0351 36.0418C13.2839 35.7403 13.6253 35.0557 13.7088 34.658C13.0187 33.9952 11.4988 33.9825 10.3838 33.9389C11.2736 33.1035 15.4794 31.8214 17.0738 31.7506C17.7385 32.1756 19.8668 34.1641 20.9001 33.8935C21.2034 33.1017 20.1828 32.2264 20.6531 31.4328C21.4903 30.8245 24.1235 31.1041 25.0641 31.5581C27.3777 32.675 27.7845 33.1072 28.3075 31.8814C29.94 32.2355 30.7954 33.227 31.4074 34.5654C31.6779 35.1574 32.8928 37.0678 33.4358 37.5327C33.7627 37.8105 33.434 37.6889 33.8644 37.7579C34.3529 36.8935 33.8408 34.7978 33.937 33.6955C34.0115 32.8438 35.793 31.1132 36.5339 30.2107C36.8916 29.5987 37.0859 28.658 36.345 28.5944C35.5078 28.7089 34.6398 29.1247 33.779 29.319C32.4279 29.4625 31.4055 29.9019 30.3541 29.0266C29.3662 28.204 28.2585 27.5848 27.1562 26.9165C26.6604 26.6168 24.9152 25.8233 24.6501 25.5182C25.8232 24.5394 26.566 24.0273 27.3105 22.3602C27.977 20.8674 28.2512 19.0696 27.9879 17.2482C27.592 14.5133 26.1192 12.5194 24.2905 10.7543C24.1307 10.5999 24.1053 10.5618 23.9273 10.3783L23.5714 10.0043C24.6174 8.98185 26.6295 7.45825 26.5932 5.32628C26.5787 4.5327 26.3026 3.74638 25.5762 3.70825C24.9189 4.13682 25.1095 4.61079 23.8166 4.95401C22.2457 5.3735 19.8868 4.44009 20.526 7.50183C20.7131 8.39529 21.2851 8.88016 21.8371 9.27967C23.753 10.6725 25.8886 13.3311 26.8275 16.4092C28.0315 20.3499 25.2639 23.0139 23.3026 24.4122C22.8704 24.7191 22.7887 24.7591 22.2312 24.5085C18.4649 22.8214 21.2361 24.405 18.8426 20.3517C18.1325 19.1459 17.7984 19.1259 17.4679 18.5811C18.2124 18.3559 18.4957 17.7549 18.5938 16.796C17.8946 16.8632 17.3589 16.9867 17.0647 17.5369L16.8032 18.0527C16.7942 18.0708 16.7742 18.1053 16.756 18.129C15.0781 17.3844 13.8269 17.8856 13.1132 19.2204C12.5902 18.592 12 17.8112 10.9249 18.3995C11.1011 19.6743 11.8656 20.003 12.9643 19.6707C12.7009 21.5121 12.7046 22.5799 12.6501 24.4558L11.1338 25.1368C10.7524 24.8771 9.90978 24.0763 9.57927 23.7694C9.03629 23.2645 8.60227 22.8087 8.13012 22.2403L6.82261 20.6822C6.41765 20.1229 6.09077 19.5509 5.6731 18.8662C4.80506 20.1374 2.69489 27.4431 2.52419 29.3771C2.8329 28.7851 4.84864 22.4837 5.88375 21.3051C6.72637 22.6852 7.38738 23.7585 8.40615 24.9443C8.73303 25.3239 9.21971 25.5636 9.42128 26.0503C6.92431 27.6828 5.33533 28.9867 3.08714 31.2984C2.49513 32.0194 1.95397 32.5151 1.33472 33.474C0.913413 34.1259 0.283267 35.2446 0.0907735 36.1653C-0.207047 37.5908 0.357723 37.9812 0.944284 38.2119C2.49695 38.8257 4.48726 38.3172 5.8547 37.4673ZM12.8408 26.5406C12.9497 27.5484 13.2875 28.2676 13.7415 28.8233C14.5315 28.8814 15.0962 28.6907 15.69 28.5182C17.1828 28.5036 19.2748 27.5412 20.0357 25.9522C21.5811 26.2446 23.2899 26.7966 24.7917 27.2579C25.5944 27.5049 26.3408 27.7845 27.0654 28.0696C28.7161 28.7197 31.3874 29.8402 31.0169 31.4909C30.7881 32.0412 30.069 31.9794 29.1701 31.6108C26.7494 30.6193 22.8305 30.2942 20.2627 30.2688C17.546 30.296 14.7367 31.0242 12.2306 32.0448C9.5139 33.1507 8.43157 34.3493 7.46365 35.2536C7.31656 33.7773 6.81898 32.27 5.31535 32.2845C5.87104 33.5103 6.15433 33.7028 6.06898 35.4044C5.96184 37.5164 3.73545 37.776 2.03932 37.925C0.384963 37.9195 0.448522 36.1471 1.12225 35.1719C1.85954 34.1023 3.2415 32.2645 4.15312 31.4074C6.35591 29.25 9.73545 26.9365 12.8408 26.5406ZM7.05143 8.39529C5.97092 8.28452 5.11559 8.15195 4.36014 7.73609C1.16039 6.5212 2.5024 12.3342 6.37588 13.4292C6.74816 12.3051 8.80022 9.87895 8.54961 8.7821L7.73424 8.52423C14.9564 -2.99635 29.2972 0.710062 35.2064 9.61381C40.2911 17.2773 40.6689 24.4704 37.796 32.6296C39.049 31.5309 40.4727 28.1786 41.0466 26.0012C43.4618 16.8596 36.4739 3.9643 27.5557 1.11684C22.667 -0.444902 15.6465 -0.720931 11.3844 2.61139C9.16704 4.34384 8.16099 6.02907 7.05143 8.39529ZM3.35409 34.3384C3.94247 33.454 2.63315 33.2125 2.26995 33.8917C1.74332 34.8759 2.91099 35.0049 3.35409 34.3384ZM13.2657 25.9722C13.4818 25.5654 14.0357 25.1441 14.9873 24.9225C16.204 24.5938 16.8668 25.3257 17.1864 26.1501C18.0454 25.3202 18.7391 23.8112 18.3886 22.0969C18.1053 20.7113 17.1192 19.2058 16.1894 18.7173C14.664 17.9165 13.6779 19.0333 13.4854 20.4207C13.2839 21.8862 13.1114 24.4758 13.2657 25.9722Z" fill="#F3F6FA"/>
<path d="M59.891 28.0369C62.1446 28.0369 63.9334 28.5854 65.2609 29.6804C66.5883 30.7772 67.253 32.27 67.253 34.1604C67.253 36.0508 66.5883 37.5454 65.2609 38.6404C63.9334 39.7373 62.1446 40.2857 59.891 40.2857H56.9945V42.9407C56.9945 43.4038 56.8293 43.7996 56.4969 44.132C56.1646 44.4643 55.7578 44.6295 55.2748 44.6295H52.2893V28.0369H59.891ZM59.5895 36.5738C60.5556 36.5738 61.2839 36.3686 61.776 35.9564C62.2699 35.5442 62.5151 34.9449 62.5151 34.1604C62.5151 33.3759 62.2699 32.773 61.776 32.3499C61.2839 31.9286 60.5556 31.7179 59.5895 31.7179H54.0072L56.9945 32.9546V36.5738H59.5895Z" fill="#F3F6FA"/>
<path d="M85.6707 44.6295V28.0369H90.3777V44.6295H85.6707Z" fill="#F3F6FA"/>
<path d="M123.804 44.6295L122.508 41.4025H115.478L114.18 44.6295H109.384L116.715 28.0369H121.331L128.691 44.6295H123.804ZM116.866 37.9322H124.558L120.637 36.7863L118.978 32.6223L116.866 37.9322Z" fill="#F3F6FA"/>
<path d="M104.904 44.2827C104.148 44.5133 103.306 44.6295 102.376 44.6295H93.7809C93.7809 39.0763 93.7809 33.5212 93.7809 27.9679H107.379V30.454C107.379 30.9879 107.194 31.4419 106.827 31.8069C106.462 32.1737 106.021 32.359 105.508 32.359H98.6078V33.9334H102.376C103.306 33.9334 104.148 34.0496 104.904 34.2803C105.677 34.5182 106.353 34.8741 106.927 35.3462C107.51 35.8293 107.951 36.405 108.247 37.0714C108.541 37.7324 108.688 38.4679 108.688 39.2815C108.688 40.095 108.541 40.8305 108.247 41.4915C107.951 42.158 107.512 42.7337 106.927 43.2167C106.353 43.6907 105.677 44.0466 104.904 44.2827ZM103.471 38.3317C103.195 38.1011 102.752 37.9867 102.142 37.9867H98.6078V39.2724L96.109 40.618L99.198 40.5999H102.142C102.467 40.5999 102.743 40.5672 102.97 40.5018C103.171 40.4437 103.337 40.3584 103.466 40.2494C103.585 40.1459 103.674 40.0206 103.736 39.8735C103.803 39.7082 103.836 39.5121 103.836 39.2815C103.836 39.0508 103.803 38.8547 103.738 38.6949C103.68 38.5533 103.589 38.4298 103.471 38.3317Z" fill="#F3F6FA"/>
<path d="M80.7694 44.2827C80.0139 44.5133 79.1713 44.6295 78.2415 44.6295H69.6447C69.6447 40.066 69.6447 34.9631 69.6447 28.6416H72.552C72.8154 28.6416 73.0605 28.6889 73.2893 28.7815C73.5236 28.8759 73.7324 29.0157 73.914 29.1992C74.0974 29.3808 74.2355 29.586 74.3299 29.813C74.4261 30.04 74.4733 30.2815 74.4733 30.5393V33.9334H78.2415C79.1713 33.9334 80.0139 34.0496 80.7694 34.2803C81.543 34.5182 82.2167 34.8741 82.7905 35.3462C83.3753 35.8293 83.8166 36.405 84.1126 37.0714C84.4049 37.7324 84.552 38.4679 84.552 39.2815C84.552 40.095 84.4049 40.8305 84.1126 41.4915C83.8166 42.158 83.3753 42.7337 82.7905 43.2167C82.2167 43.6907 81.543 44.0466 80.7694 44.2827ZM79.3347 38.3317C79.0605 38.1011 78.6174 37.9867 78.0072 37.9867H74.4733V40.5999H78.0072C78.3323 40.5999 78.6083 40.5672 78.8335 40.5018C79.0369 40.4437 79.2022 40.3584 79.3311 40.2494C79.4509 40.1459 79.5399 40.0206 79.6017 39.8735C79.6671 39.7082 79.7016 39.5121 79.7016 39.2815C79.7016 39.0508 79.6689 38.8547 79.6035 38.6949C79.5436 38.5533 79.4546 38.4298 79.3347 38.3317Z" fill="#F3F6FA"/>
<path fill-rule="evenodd" clip-rule="evenodd" d="M142.919 22.687C150.138 22.687 155.991 28.54 155.991 35.7585C155.991 42.977 150.138 48.8299 142.919 48.8299C135.699 48.8299 129.848 42.977 129.848 35.7585C129.848 28.54 135.699 22.687 142.919 22.687ZM150.347 36.7899V29.6749H145.248L141.142 36.7899V39.868H146.798V41.8402H150.347V39.868H151.821V36.7899H150.347ZM144.467 36.7899L146.798 32.7512V35.5351L149.297 36.7881H146.798V36.7899H144.467ZM136.337 29.6768L132.127 33.8826L134.333 36.089L136.337 34.086V41.8402H139.887V29.6768H136.337Z" fill="#F3F6FA"/>
</g>
<defs>
<clipPath id="clip0_408_1259">
<rect width="156" height="60" fill="white"/>
</clipPath>
</defs></symbol>
</svg>
